<svg width="29" height="29" viewBox="0 0 29 29" fill="none" xmlns="http://www.w3.org/2000/svg">
<circle cx="14.9358" cy="14.9153" r="13.9778" fill="#161515"/>
<g clip-path="url(#clip0)">
<path d="M15.2768 8.54905C17.4615 8.54905 17.7206 8.55723 18.5838 8.59677C20.8011 8.69769 21.8369 9.74977 21.9378 11.9508C21.9773 12.8133 21.9848 13.0724 21.9848 15.257C21.9848 17.4423 21.9766 17.7007 21.9378 18.5633C21.8362 20.7622 20.8032 21.8163 18.5838 21.9173C17.7206 21.9568 17.4628 21.965 15.2768 21.965C13.0922 21.965 12.8331 21.9568 11.9706 21.9173C9.74778 21.8157 8.71751 20.7588 8.6166 18.5626C8.57705 17.7001 8.56887 17.4416 8.56887 15.2563C8.56887 13.0717 8.57774 12.8133 8.6166 11.9501C8.7182 9.74977 9.75119 8.69701 11.9706 8.59609C12.8338 8.55723 13.0922 8.54905 15.2768 8.54905ZM15.2768 7.07422C13.0547 7.07422 12.7765 7.08376 11.9038 7.12331C8.93229 7.25968 7.28087 8.90838 7.1445 11.8826C7.10427 12.756 7.09473 13.0342 7.09473 15.2563C7.09473 17.4785 7.10427 17.7573 7.14382 18.6301C7.28019 21.6016 8.92888 23.253 11.9031 23.3894C12.7765 23.4289 13.0547 23.4385 15.2768 23.4385C17.499 23.4385 17.7778 23.4289 18.6506 23.3894C21.6193 23.253 23.2749 21.6043 23.4092 18.6301C23.4494 17.7573 23.459 17.4785 23.459 15.2563C23.459 13.0342 23.4494 12.756 23.4099 11.8833C23.2762 8.91451 21.6255 7.26036 18.6513 7.12399C17.7778 7.08376 17.499 7.07422 15.2768 7.07422V7.07422ZM15.2768 11.0548C12.9565 11.0548 11.0753 12.936 11.0753 15.2563C11.0753 17.5766 12.9565 19.4585 15.2768 19.4585C17.5972 19.4585 19.4784 17.5773 19.4784 15.2563C19.4784 12.936 17.5972 11.0548 15.2768 11.0548ZM15.2768 17.9837C13.7707 17.9837 12.5495 16.7632 12.5495 15.2563C12.5495 13.7501 13.7707 12.529 15.2768 12.529C16.783 12.529 18.0042 13.7501 18.0042 15.2563C18.0042 16.7632 16.783 17.9837 15.2768 17.9837ZM19.6447 9.90728C19.102 9.90728 18.6622 10.3471 18.6622 10.8891C18.6622 11.4312 19.102 11.871 19.6447 11.871C20.1868 11.871 20.6259 11.4312 20.6259 10.8891C20.6259 10.3471 20.1868 9.90728 19.6447 9.90728Z" fill="white"/>
</g>
<defs>
<clipPath id="clip0">
<rect width="16.3642" height="16.3642" fill="white" transform="translate(7.09473 7.07422)"/>
</clipPath>
</defs>
</svg>
