<svg width="29" height="29" viewBox="0 0 29 29" fill="none" xmlns="http://www.w3.org/2000/svg">
<circle cx="14.6663" cy="14.9153" r="13.9778" fill="#161515"/>
<g clip-path="url(#clip0)">
<path fill-rule="evenodd" clip-rule="evenodd" d="M18.6788 21.6059C18.8984 21.7614 19.1813 21.8002 19.4336 21.7048C19.6859 21.6086 19.8714 21.3932 19.9273 21.132C20.5198 18.3474 21.9571 11.2992 22.4965 8.76612C22.5374 8.5752 22.4692 8.37678 22.3192 8.24928C22.1692 8.12178 21.9612 8.08496 21.7758 8.15382C18.9168 9.21204 10.1122 12.5156 6.51338 13.8472C6.28497 13.9318 6.13633 14.1513 6.14383 14.392C6.15201 14.6334 6.31429 14.8427 6.54816 14.9129C8.16208 15.3957 10.2806 16.0673 10.2806 16.0673C10.2806 16.0673 11.2706 19.0572 11.7868 20.5777C11.8515 20.7686 12.0009 20.9186 12.1979 20.9704C12.3943 21.0216 12.6043 20.9677 12.7509 20.8293C13.58 20.0465 14.8619 18.8363 14.8619 18.8363C14.8619 18.8363 17.2974 20.622 18.6788 21.6059ZM11.1717 15.6896L12.3166 19.4656L12.5709 17.0744C12.5709 17.0744 16.994 13.0849 19.5155 10.811C19.5891 10.7441 19.5993 10.6323 19.538 10.5539C19.4773 10.4755 19.3654 10.4571 19.2816 10.5103C16.3592 12.3765 11.1717 15.6896 11.1717 15.6896Z" fill="white"/>
</g>
<defs>
<clipPath id="clip0">
<rect width="16.3642" height="16.3642" fill="white" transform="translate(6.14355 6.07422)"/>
</clipPath>
</defs>
</svg>
