<svg width="29" height="29" viewBox="0 0 29 29" fill="none" xmlns="http://www.w3.org/2000/svg">
<circle cx="14.5735" cy="14.9153" r="13.9778" fill="#161515"/>
<g clip-path="url(#clip0)">
<path d="M23.3642 10.1073C22.7622 10.3746 22.1151 10.5546 21.436 10.6358C22.1294 10.2205 22.6619 9.56254 22.9122 8.77842C22.2637 9.16298 21.5451 9.44254 20.78 9.59323C20.1684 8.9407 19.295 8.53296 18.3295 8.53296C16.1619 8.53296 14.5691 10.5553 15.0587 12.6547C12.2693 12.5149 9.79556 11.1785 8.13936 9.1473C7.25978 10.6562 7.68321 12.6302 9.17781 13.6297C8.62824 13.612 8.11004 13.4613 7.65798 13.2097C7.62116 14.765 8.73597 16.2201 10.3506 16.5439C9.87806 16.6721 9.36054 16.7021 8.83416 16.6012C9.26099 17.9349 10.5006 18.9052 11.9706 18.9324C10.5592 20.0391 8.78097 20.5334 7 20.3234C8.48574 21.2759 10.251 21.8316 12.1466 21.8316C18.38 21.8316 21.9017 16.5671 21.6889 11.8454C22.3449 11.3715 22.9142 10.7803 23.3642 10.1073Z" fill="white"/>
</g>
<defs>
<clipPath id="clip0">
<rect width="16.3642" height="16.3642" fill="white" transform="translate(7 7)"/>
</clipPath>
</defs>
</svg>
