<svg width="29" height="29" viewBox="0 0 29 29" fill="none" xmlns="http://www.w3.org/2000/svg">
<circle cx="14.6155" cy="14.9153" r="13.9778" fill="#161515"/>
<path d="M7 21.8772L8.06345 18.0569C7.40723 16.9386 7.06241 15.6709 7.06304 14.371C7.06493 10.3071 10.428 7 14.5602 7C16.5654 7.00062 18.4477 7.76866 19.8636 9.16215C21.2788 10.5557 22.0579 12.4079 22.0573 14.3779C22.0554 18.4424 18.6923 21.7495 14.5602 21.7495C13.3057 21.7489 12.0695 21.4396 10.9746 20.8519L7 21.8772ZM11.1586 19.5173C12.2151 20.1341 13.2238 20.5035 14.5576 20.5042C17.992 20.5042 20.7896 17.7556 20.7915 14.3766C20.7928 10.9908 18.0084 8.24597 14.5627 8.24473C11.1258 8.24473 8.33011 10.9933 8.32885 14.3717C8.32821 15.7509 8.73922 16.7836 9.42949 17.8641L8.79974 20.1254L11.1586 19.5173ZM18.3368 16.1303C18.2901 16.0534 18.1653 16.0075 17.9775 15.9152C17.7902 15.8228 16.8693 15.3771 16.6972 15.3157C16.5257 15.2544 16.4009 15.2234 16.2754 15.4081C16.1506 15.5922 15.7913 16.0075 15.6823 16.1303C15.5732 16.253 15.4635 16.2685 15.2763 16.1761C15.0891 16.0838 14.4852 15.8897 13.7697 15.2618C13.213 14.7733 12.8367 14.1702 12.7277 13.9855C12.6186 13.8014 12.7163 13.7016 12.8096 13.6098C12.8941 13.5274 12.9968 13.3947 13.0908 13.2869C13.1859 13.1802 13.2168 13.1034 13.2799 12.98C13.3423 12.8573 13.3114 12.7494 13.2641 12.6571C13.2168 12.5653 12.8424 11.6584 12.6867 11.2896C12.5341 10.9307 12.3797 10.979 12.265 10.9735L11.9056 10.9673C11.7808 10.9673 11.5778 11.0131 11.4064 11.1979C11.2349 11.3826 10.7508 11.8277 10.7508 12.7345C10.7508 13.6414 11.4221 14.5173 11.5154 14.6401C11.6094 14.7628 12.8361 16.6237 14.7152 17.4215C15.1622 17.6112 15.5114 17.7246 15.7831 17.8095C16.2319 17.9496 16.6404 17.9298 16.9632 17.8827C17.3231 17.83 18.0714 17.437 18.2277 17.0068C18.3841 16.576 18.3841 16.2071 18.3368 16.1303Z" fill="white"/>
</svg>
