<svg width="438" height="295" viewBox="0 0 438 295" fill="none" xmlns="http://www.w3.org/2000/svg">
<path d="M251.937 40.3456C251.694 38.2287 243.073 44.8449 243.073 44.8449C243.073 44.8449 250.329 38.2957 249.605 36.7831C248.882 35.2704 240.695 42.4458 240.695 42.4458C240.695 42.4458 248.158 35.693 246.89 34.3913C245.622 33.0897 237.672 40.659 237.672 40.659C237.672 40.659 245.749 32.3185 242.508 32.2841C241.053 32.2726 230.063 41.0787 218.203 51.5861C221.885 56.0132 225.559 60.2839 229.502 64.394C233.244 59.842 236.193 56.223 236.588 55.623C237.772 53.8231 250.443 54.3621 250.39 52.2359C250.338 50.1097 241.928 49.555 241.928 49.555C241.928 49.555 252.179 42.4625 251.937 40.3456Z" fill="white"/>
<path d="M229.47 64.8103C229.417 64.8139 229.363 64.8056 229.313 64.7858C229.263 64.7661 229.217 64.7353 229.179 64.6956C225.674 61.034 222.079 56.9621 217.853 51.8614C217.818 51.8196 217.791 51.7708 217.774 51.7179C217.756 51.665 217.749 51.6089 217.752 51.5531C217.763 51.44 217.814 51.3358 217.893 51.2604C226.664 43.4573 240.389 31.9735 242.428 31.8734C242.649 31.8401 242.875 31.8843 243.071 31.9994C243.267 32.1144 243.423 32.2941 243.516 32.5112C243.833 33.325 242.94 34.8986 241.746 36.4963C244.03 34.6977 246.334 33.2852 247.118 34.0945C247.21 34.1891 247.28 34.304 247.326 34.4308C247.371 34.5576 247.389 34.6933 247.379 34.8281C247.356 35.5849 246.606 36.7092 245.594 37.9662C247.168 36.8659 248.65 36.019 249.359 36.1777C249.473 36.1957 249.581 36.2418 249.675 36.3125C249.768 36.3832 249.845 36.4763 249.899 36.5844C250.37 37.5289 248.842 39.576 247.041 41.5168C249.014 40.2588 251.024 39.2201 251.831 39.6044C251.962 39.6643 252.075 39.7605 252.159 39.883C252.243 40.0054 252.294 40.1494 252.307 40.2998C252.534 42.2792 245.892 47.2132 243.038 49.2333C245.753 49.4963 250.648 50.242 250.702 52.2299C250.773 53.6732 247.925 54.0527 243.316 54.537C240.628 54.8257 237.285 55.1833 236.834 55.869C236.383 56.5547 234.145 59.3002 229.724 64.678C229.656 64.7518 229.567 64.7984 229.47 64.8103ZM218.717 51.6347C222.684 56.4163 226.07 60.2957 229.428 63.7802C234.609 57.4804 235.961 55.7367 236.213 55.3834C236.824 54.4319 239.286 54.1267 243.257 53.7013C245.6 53.448 249.96 52.9851 249.941 52.2488C249.888 51.1732 245.72 50.2351 241.853 49.9734C241.771 49.9674 241.692 49.9337 241.629 49.8772C241.565 49.8207 241.52 49.7443 241.5 49.659C241.478 49.574 241.482 49.4841 241.51 49.4018C241.539 49.3195 241.591 49.2488 241.659 49.1996C246.627 45.7855 251.676 41.5565 251.551 40.4199C250.996 40.0509 247.224 42.2543 243.31 45.2572C243.227 45.3089 243.128 45.3263 243.033 45.3062C242.938 45.2861 242.853 45.2299 242.794 45.148C242.734 45.0662 242.705 44.9643 242.711 44.8615C242.717 44.7588 242.759 44.6621 242.827 44.5898C246.567 41.2175 249.564 37.6883 249.237 37.0408C248.644 36.7658 244.825 39.4139 240.94 42.8393C240.86 42.9117 240.755 42.947 240.65 42.9375C240.545 42.9279 240.447 42.8744 240.379 42.7885C240.31 42.7027 240.276 42.5916 240.285 42.4797C240.293 42.3678 240.343 42.2643 240.423 42.1919C242.802 40.0293 246.586 36.1296 246.628 34.865C246.625 34.8099 246.623 34.7731 246.623 34.7639C246.111 34.2177 241.954 37.2141 237.916 41.0433C237.837 41.1135 237.735 41.1488 237.632 41.1418C237.528 41.1349 237.431 41.0864 237.36 41.0061C237.322 40.9702 237.291 40.9266 237.268 40.8778C237.246 40.829 237.234 40.7761 237.231 40.7221C237.228 40.6682 237.236 40.6142 237.253 40.5635C237.27 40.5128 237.297 40.4664 237.331 40.4269C240.207 37.4473 243.115 33.692 242.798 32.8874C242.794 32.8047 242.594 32.7776 242.438 32.7761C241.251 32.7698 231.897 39.9841 218.717 51.6347Z" fill="#231F20"/>
<path d="M186.457 84.7729C184.336 93.4383 201.617 132.134 201.617 132.134L219.396 106.204C218.934 105.452 208.455 88.1439 208.455 88.1439C208.455 88.1439 221.946 73.483 229.424 64.3979C225.498 60.287 221.771 55.982 218.126 51.59C203.553 64.507 187.625 79.9971 186.457 84.7729Z" fill="#231F20"/>
<path d="M201.637 132.538L201.542 132.543C201.476 132.536 201.413 132.511 201.359 132.47C201.305 132.429 201.263 132.373 201.236 132.309C200.526 130.731 183.919 93.3942 186.054 84.682C187.259 79.7662 203.235 64.2092 217.869 51.2893C217.944 51.2209 218.041 51.1867 218.14 51.1939C218.239 51.2011 218.332 51.2491 218.399 51.3278C222.606 56.4109 226.192 60.474 229.687 64.1176C229.755 64.1904 229.795 64.2868 229.8 64.3886C229.805 64.4903 229.774 64.5903 229.714 64.6692C222.825 73.0435 210.685 86.3018 208.934 88.2032C210.272 90.4138 219.299 105.296 219.723 105.994C219.768 106.06 219.794 106.139 219.798 106.221C219.802 106.302 219.784 106.383 219.746 106.454L201.966 132.375C201.929 132.429 201.879 132.473 201.821 132.501C201.764 132.53 201.7 132.543 201.637 132.538ZM218.11 52.1529C204.334 64.3672 187.981 80.1731 186.809 84.8753C184.89 92.7106 199.471 126.341 201.664 131.339L218.945 106.189L208.154 88.3614C208.109 88.2816 208.09 88.1886 208.099 88.0966C208.109 88.0046 208.147 87.9186 208.207 87.8519C208.338 87.7072 221.491 73.3763 228.931 64.4128C225.571 60.8915 222.123 56.9876 218.11 52.1529Z" fill="#231F20"/>
<path d="M233.643 123.336C235.76 134.715 243.398 144.053 251.608 152.525C256.523 157.555 262.496 162.625 269.296 161.95C272.544 161.615 275.529 159.976 278.289 158.145C285.199 153.59 291.295 147.773 296.298 140.958C295.255 141.013 294.227 140.655 293.414 139.953C292.601 139.251 292.059 138.255 291.894 137.156C293.317 137.78 294.872 137.974 296.388 137.717C297.903 137.461 299.32 136.764 300.482 135.703C305.55 130.975 302.791 127.157 298.584 124.027C292.007 119.152 286.647 112.639 282.974 105.063C277.339 93.3045 266.53 77.754 251.867 82.1417C237.768 86.3544 234.566 100.169 233.26 113.78C232.938 116.965 233.067 120.186 233.643 123.336Z" fill="white"/>
<path d="M268.678 162.413C261.982 162.742 256.161 157.775 251.337 152.824C243.631 144.908 235.457 135.237 233.257 123.42C232.661 120.214 232.52 116.934 232.84 113.69C233.42 107.856 234.429 100.369 237.391 94.1969C238.782 91.1286 240.784 88.4215 243.258 86.262C245.733 84.1026 248.621 82.5421 251.724 81.688C258.415 79.6914 271.405 80.0397 283.3 104.826C286.937 112.346 292.254 118.808 298.781 123.64C301.928 125.983 303.452 128.101 303.578 130.325C303.669 132.164 302.716 134.109 300.713 135.995C299.595 137.015 298.249 137.715 296.803 138.03C295.357 138.344 293.857 138.263 292.444 137.793C292.73 138.615 293.254 139.321 293.939 139.809C294.625 140.297 295.437 140.542 296.258 140.509C296.335 140.501 296.413 140.518 296.481 140.557C296.549 140.596 296.605 140.656 296.642 140.729C296.679 140.801 296.695 140.882 296.688 140.963C296.681 141.044 296.652 141.12 296.603 141.183C291.59 148.067 285.459 153.938 278.498 158.522C275.906 160.234 272.781 162.037 269.334 162.381L268.678 162.413ZM255.947 81.8124C254.593 81.8795 253.25 82.1093 251.945 82.4973C238.094 86.6425 234.955 99.9749 233.625 113.808C233.314 116.967 233.451 120.159 234.03 123.28C236.184 134.878 244.265 144.435 251.906 152.243C256.758 157.221 262.606 162.223 269.275 161.527C272.558 161.2 275.581 159.448 278.098 157.786C284.741 153.4 290.619 147.828 295.475 141.312C294.48 141.17 293.553 140.689 292.833 139.942C292.113 139.195 291.637 138.222 291.478 137.168C291.468 137.094 291.478 137.02 291.505 136.952C291.532 136.884 291.576 136.825 291.633 136.782C291.689 136.741 291.756 136.718 291.824 136.714C291.893 136.711 291.961 136.728 292.021 136.763C293.373 137.352 294.848 137.535 296.285 137.292C297.723 137.049 299.068 136.39 300.172 135.386C301.985 133.684 302.864 132.01 302.768 130.402C302.674 128.49 301.209 126.516 298.315 124.363C291.684 119.452 286.282 112.887 282.585 105.248C273.04 85.2952 262.859 81.473 255.947 81.8124Z" fill="#231F20"/>
<path d="M334.094 154.446C333.615 157.023 324.614 176.375 324.614 176.375L337.939 183.194C337.939 183.194 348.636 161.713 349.57 160.276C350.504 158.838 358.414 146.368 359.364 142.082C360.314 137.796 351.987 135.072 348.652 135.577C345.317 136.081 334.574 151.87 334.094 154.446Z" fill="white"/>
<path d="M337.943 183.618C337.879 183.622 337.815 183.606 337.759 183.572L324.434 176.752C324.386 176.728 324.343 176.694 324.308 176.651C324.273 176.608 324.247 176.558 324.231 176.504C324.207 176.455 324.194 176.4 324.191 176.345C324.188 176.289 324.197 176.234 324.215 176.182C327.352 169.513 333.28 156.385 333.657 154.366C334.164 151.632 345.028 135.663 348.521 135.205C351.059 134.85 356.453 136.235 358.721 138.879C359.133 139.307 359.437 139.838 359.605 140.422C359.773 141.007 359.8 141.627 359.682 142.223C358.673 146.881 349.916 160.434 349.836 160.567C348.917 161.966 338.332 183.249 338.22 183.439C338.19 183.489 338.149 183.531 338.101 183.562C338.053 183.594 337.999 183.613 337.943 183.618ZM325.15 176.173L337.756 182.641C339.199 179.741 348.352 161.386 349.229 160.034C351.072 157.179 358.113 145.885 358.96 141.982C359.051 141.518 359.027 141.035 358.891 140.582C358.755 140.128 358.511 139.719 358.184 139.394C356.117 136.98 350.986 135.665 348.681 135.99C345.534 136.439 334.9 152.333 334.479 154.529C334.027 156.956 326.45 173.373 325.15 176.173Z" fill="#231F20"/>
<path d="M330.771 162.784L319.932 178.374L294.09 161.792L284.49 183.386C284.49 183.386 321.238 209.901 326.116 206.952C330.994 204.003 344.536 169.923 344.536 169.923L330.771 162.784Z" fill="#231F20"/>
<path d="M325.34 207.562C318.049 207.92 287.864 186.307 284.273 183.719C284.199 183.663 284.146 183.581 284.122 183.488C284.099 183.395 284.106 183.297 284.144 183.209L293.744 161.616C293.767 161.565 293.799 161.519 293.839 161.483C293.879 161.446 293.925 161.418 293.976 161.402C294.027 161.385 294.08 161.38 294.133 161.387C294.185 161.394 294.236 161.413 294.281 161.442L319.811 177.836L330.449 162.569C330.5 162.492 330.576 162.437 330.662 162.414C330.748 162.391 330.839 162.402 330.919 162.445L344.727 169.581C344.814 169.629 344.88 169.71 344.914 169.807C344.948 169.905 344.946 170.012 344.909 170.107C344.354 171.507 331.236 204.351 326.29 207.331C325.996 207.487 325.67 207.566 325.34 207.562ZM284.968 183.243C295.346 190.705 322.124 208.899 325.951 206.601C330.4 203.903 342.637 173.748 344.078 170.12L330.892 163.294L320.239 178.617C320.186 178.701 320.104 178.759 320.011 178.779C319.918 178.799 319.822 178.779 319.742 178.724L294.249 162.365L284.968 183.243Z" fill="#231F20"/>
<path d="M339.568 125.526L341.259 162.269L357.596 161.467L355.792 124.73L339.568 125.526Z" fill="#231F20"/>
<path d="M357.618 161.908L341.281 162.71C341.23 162.712 341.18 162.704 341.132 162.686C341.084 162.667 341.04 162.638 341.003 162.602C340.966 162.565 340.936 162.521 340.915 162.471C340.894 162.422 340.882 162.369 340.88 162.315L339.179 125.536C339.176 125.428 339.212 125.323 339.281 125.244C339.35 125.165 339.446 125.118 339.547 125.113L355.772 124.316C355.873 124.311 355.972 124.349 356.047 124.421C356.122 124.494 356.167 124.595 356.172 124.702L357.978 161.475C357.981 161.529 357.975 161.583 357.959 161.634C357.943 161.685 357.917 161.733 357.884 161.773C357.85 161.813 357.809 161.846 357.764 161.869C357.718 161.892 357.668 161.905 357.618 161.908ZM341.63 161.882L357.181 161.118L355.415 125.154L339.951 125.913L341.63 161.882Z" fill="#231F20"/>
<path d="M341.386 128.69L342.717 157.562L355.693 156.925L354.276 128.057L341.386 128.69Z" fill="white"/>
<path d="M355.713 157.338L342.755 157.974C342.703 157.978 342.652 157.97 342.603 157.952C342.555 157.934 342.51 157.905 342.472 157.869C342.433 157.831 342.401 157.785 342.379 157.734C342.357 157.682 342.346 157.627 342.345 157.571L341.006 128.709C341.003 128.598 341.04 128.491 341.111 128.41C341.181 128.329 341.279 128.281 341.383 128.275L354.273 127.643C354.376 127.638 354.477 127.676 354.554 127.75C354.63 127.824 354.676 127.927 354.682 128.037L356.099 156.905C356.102 156.96 356.094 157.016 356.076 157.069C356.058 157.121 356.03 157.169 355.994 157.21C355.958 157.25 355.914 157.282 355.866 157.305C355.818 157.327 355.766 157.338 355.713 157.338ZM343.092 157.092L355.274 156.494L353.899 128.5L341.804 129.093L343.092 157.092Z" fill="#231F20"/>
<path d="M333.48 156.393C333.48 156.393 330.436 144.139 333.995 142.019C337.554 139.9 350.004 137.013 348.209 140.142C346.414 143.271 339.699 145.481 339.699 145.481C339.699 145.481 341.311 149.742 339.924 152.888" fill="white"/>
<path d="M333.5 156.807C333.41 156.813 333.321 156.785 333.249 156.728C333.176 156.671 333.125 156.588 333.104 156.495C332.975 155.985 330.017 143.901 333.804 141.651C336.875 139.832 346.947 137.19 348.522 138.919C348.689 139.118 348.784 139.374 348.787 139.64C348.791 139.906 348.703 140.164 348.541 140.365C346.948 143.208 341.704 145.216 340.206 145.751C340.585 146.939 341.48 150.351 340.282 153.12C340.236 153.219 340.154 153.295 340.056 153.331C339.957 153.367 339.849 153.36 339.754 153.311C339.661 153.261 339.589 153.175 339.553 153.071C339.517 152.966 339.52 152.851 339.562 152.749C340.864 149.81 339.347 145.728 339.328 145.683C339.304 145.632 339.29 145.576 339.287 145.519C339.284 145.462 339.293 145.406 339.312 145.352C339.336 145.3 339.369 145.253 339.41 145.215C339.452 145.176 339.5 145.147 339.552 145.129C339.621 145.125 346.148 142.962 347.846 139.975C347.966 139.767 347.993 139.618 347.929 139.547C346.94 138.453 337.58 140.424 334.163 142.435C331.462 144.042 333.019 153.006 333.84 156.329C333.854 156.383 333.858 156.438 333.852 156.493C333.845 156.548 333.829 156.6 333.803 156.648C333.777 156.696 333.742 156.737 333.701 156.77C333.66 156.803 333.613 156.827 333.562 156.841L333.5 156.807Z" fill="#231F20"/>
<path d="M241.976 136.797L218.526 98.5422L195.739 128.312L205.736 148.483C205.736 148.483 193.623 183.977 196.974 252.22C196.974 252.22 270.546 248.266 289.069 247.357L262.913 208.507C262.913 208.507 268.049 189.658 270.941 184.871L289.466 194.421L309.029 162.856L241.976 136.797Z" fill="#FFD400"/>
<path d="M243.505 174.284C255.746 181.056 257.085 151.021 257.295 144.523C257.448 142.731 257.259 140.922 256.739 139.205C255.948 137.032 254.266 135.401 252.589 133.879C250.59 132.135 248.292 130.312 245.685 130.32C244.473 130.4 243.296 130.781 242.25 131.432C241.204 132.084 240.317 132.988 239.66 134.072C238.362 136.252 237.47 138.68 237.032 141.223C234.744 151.758 235.387 162.73 241.25 171.916C241.746 172.795 242.426 173.54 243.236 174.095L243.505 174.284Z" fill="#231F20"/>
<path d="M247.133 175.673C245.805 175.694 244.493 175.339 243.333 174.643L243.056 174.481C242.192 173.897 241.468 173.105 240.942 172.171C235.566 163.744 234.087 153.025 236.666 141.158C237.112 138.565 238.023 136.089 239.347 133.866C240.035 132.725 240.968 131.775 242.069 131.093C243.17 130.411 244.409 130.017 245.684 129.942C248.351 129.931 250.698 131.696 252.792 133.602C254.494 135.113 256.222 136.788 257.052 139.061C257.587 140.837 257.785 142.707 257.634 144.561C257.304 154.245 255.818 171.062 249.598 174.897C248.848 175.364 248.003 175.63 247.133 175.673ZM245.465 130.764C244.353 130.879 243.28 131.259 242.328 131.877C241.377 132.495 240.57 133.335 239.968 134.333C238.703 136.472 237.835 138.852 237.411 141.343C234.874 152.987 236.317 163.514 241.569 171.716C242.024 172.542 242.651 173.246 243.402 173.773L243.661 173.917C245.78 175.094 247.602 175.18 249.225 174.178C253.545 171.515 256.357 160.705 256.895 144.506C257.041 142.766 256.861 141.012 256.365 139.343C255.604 137.252 253.959 135.665 252.329 134.215C250.3 132.416 248.096 130.736 245.672 130.754L245.465 130.764Z" fill="#231F20"/>
<path d="M276.2 116.482C277.505 120.667 275.973 126.151 273.431 129.419C271.736 131.575 267.824 132.32 266.864 128.995C266.259 126.803 266.071 124.508 266.313 122.244C266.554 119.98 267.219 117.793 268.269 115.812C269.848 112.702 273.072 110.812 275.388 114.596C275.734 115.185 276.007 115.819 276.2 116.482Z" fill="#231F20"/>
<path d="M269.956 131.663C269.625 131.681 269.292 131.657 268.966 131.592C268.378 131.463 267.835 131.162 267.398 130.722C266.962 130.283 266.649 129.722 266.497 129.105C265.878 126.866 265.683 124.522 265.923 122.208C266.163 119.895 266.834 117.658 267.896 115.627C269.004 113.5 270.653 112.165 272.252 112.096C273.159 112.051 274.485 112.438 275.672 114.389C276.047 115.005 276.347 115.668 276.566 116.363C277.984 120.901 276.199 126.518 273.756 129.679C273.283 130.266 272.702 130.745 272.049 131.086C271.396 131.427 270.684 131.623 269.956 131.663ZM272.248 112.907C270.935 112.972 269.53 114.156 268.564 116.009C267.548 117.947 266.907 120.082 266.678 122.291C266.449 124.501 266.636 126.739 267.23 128.875C267.341 129.352 267.577 129.786 267.912 130.125C268.246 130.465 268.664 130.696 269.117 130.792C269.863 130.9 270.622 130.807 271.324 130.521C272.026 130.236 272.648 129.767 273.133 129.157C275.431 126.224 277.157 120.822 275.842 116.61C275.647 115.975 275.376 115.369 275.035 114.807C274.235 113.501 273.311 112.855 272.282 112.896L272.248 112.907Z" fill="#231F20"/>
<path d="M258.6 136.358C257.218 143.494 256.279 159.64 244.851 151.778C243.677 150.89 242.637 149.816 241.768 148.594C235.964 141.165 237.272 136.235 239.665 127.648C240.694 123.912 241.559 120.183 242.579 116.447C243.6 112.71 245.408 109.156 246.879 105.592C246.824 105.714 252.323 106.246 257.654 103.339C262.984 100.433 267.368 97.4711 267.368 97.4711C268.961 99.752 270.647 101.457 271.57 104.213C272.429 106.889 272.777 109.717 272.593 112.531C272.24 119.432 270.021 126.987 267.393 133.263C264.766 139.539 258.6 136.358 258.6 136.358Z" fill="white"/>
<path d="M250.553 154.327C248.825 154.412 246.858 153.679 244.635 152.148C243.427 151.235 242.357 150.132 241.461 148.876C235.482 141.216 236.918 136.068 239.288 127.547C239.78 125.754 240.244 123.915 240.694 122.142C241.18 120.229 241.681 118.26 242.227 116.326C243.061 113.613 244.074 110.967 245.259 108.408C245.695 107.41 246.131 106.412 246.541 105.415C246.561 105.364 246.591 105.319 246.628 105.281C246.666 105.243 246.71 105.213 246.758 105.194C246.806 105.174 246.858 105.165 246.909 105.167C246.961 105.169 247.012 105.182 247.059 105.205C250.662 105.477 254.262 104.701 257.471 102.961C262.716 100.077 267.109 97.1336 267.151 97.1039C267.237 97.0493 267.339 97.0305 267.437 97.0512C267.536 97.0719 267.624 97.1305 267.685 97.2159C268.085 97.786 268.484 98.3194 268.882 98.8436C270.184 100.376 271.221 102.141 271.944 104.057C272.816 106.789 273.173 109.675 272.993 112.548C272.664 118.729 270.811 126.147 267.756 133.42C267.442 134.282 266.963 135.064 266.35 135.717C265.737 136.371 265.002 136.881 264.193 137.217C262.448 137.782 260.571 137.695 258.872 136.971C258.735 137.706 258.594 138.533 258.454 139.397C257.573 144.721 256.372 152.023 252.333 153.881C251.77 154.141 251.167 154.292 250.553 154.327ZM247.144 106.048C246.774 106.988 246.366 107.856 245.978 108.76C244.809 111.286 243.808 113.897 242.984 116.574C242.444 118.444 241.945 120.459 241.458 122.363C240.971 124.267 240.545 125.983 240.044 127.786C237.667 136.326 236.364 141.026 242.075 148.339C242.92 149.529 243.929 150.577 245.069 151.445C247.883 153.39 250.232 153.956 252.078 153.11C255.728 151.428 256.847 144.397 257.737 139.257C257.918 138.18 258.076 137.167 258.25 136.302C258.264 136.24 258.29 136.183 258.327 136.133C258.364 136.084 258.41 136.044 258.463 136.015C258.517 135.987 258.575 135.972 258.634 135.971C258.694 135.969 258.753 135.982 258.807 136.007C260.448 136.803 262.298 136.951 264.024 136.424C264.731 136.126 265.372 135.676 265.906 135.101C266.439 134.526 266.854 133.839 267.125 133.083C270.141 125.894 271.981 118.579 272.297 112.499C272.475 109.741 272.133 106.969 271.291 104.347C270.586 102.519 269.583 100.836 268.328 99.3776C267.995 98.9424 267.652 98.4892 267.326 98.0352C266.227 98.7527 262.366 101.255 257.889 103.715C254.575 105.506 250.863 106.312 247.144 106.048Z" fill="#231F20"/>
<path d="M257.12 143.269C257.12 143.269 251.709 142.235 249.049 137.62C246.389 133.004 247.679 129.301 247.679 129.301C247.679 129.301 252.627 134.818 258.618 136.385L257.12 143.269Z" fill="#231F20"/>
<path d="M257.14 143.673L257.054 143.678C256.826 143.633 251.439 142.562 248.714 137.848C245.988 133.135 247.248 129.331 247.3 129.172C247.323 129.107 247.361 129.05 247.41 129.006C247.46 128.962 247.519 128.932 247.582 128.918C247.645 128.906 247.71 128.909 247.771 128.929C247.832 128.948 247.888 128.983 247.934 129.03C247.937 129.085 252.887 134.482 258.669 136.005C258.718 136.017 258.764 136.04 258.805 136.071C258.846 136.103 258.881 136.143 258.907 136.188C258.934 136.234 258.951 136.285 258.959 136.338C258.967 136.391 258.965 136.445 258.953 136.498L257.497 143.361C257.479 143.448 257.433 143.525 257.369 143.582C257.304 143.638 257.224 143.671 257.14 143.673ZM247.865 130.093C247.486 132.634 248.019 135.239 249.358 137.393C251.525 141.138 255.608 142.449 256.827 142.767L258.147 136.666C253.29 135.273 249.223 131.474 247.865 130.093Z" fill="#231F20"/>
<path d="M259.491 124.703C258.398 124.667 257.326 124.366 256.356 123.825C256.265 123.775 256.196 123.69 256.164 123.587C256.133 123.484 256.14 123.372 256.186 123.275C256.232 123.179 256.312 123.106 256.409 123.073C256.505 123.04 256.611 123.049 256.702 123.098C257.387 123.47 259.358 124.295 260.193 123.655C260.735 123.241 259.937 119.493 258.439 115.447C258.402 115.346 258.404 115.234 258.444 115.135C258.485 115.036 258.561 114.959 258.656 114.92C258.75 114.881 258.856 114.884 258.949 114.928C259.042 114.972 259.115 115.053 259.152 115.154C260.05 117.57 261.986 123.309 260.631 124.297C260.296 124.544 259.9 124.685 259.491 124.703Z" fill="#231F20"/>
<path d="M258.155 129.763C257.259 129.822 256.361 129.658 255.533 129.284C253.317 128.25 251.89 125.638 251.238 121.523C251.223 121.417 251.247 121.308 251.306 121.221C251.365 121.134 251.453 121.075 251.553 121.056C251.602 121.047 251.653 121.049 251.702 121.061C251.751 121.074 251.798 121.096 251.839 121.127C251.88 121.159 251.915 121.199 251.941 121.244C251.968 121.29 251.985 121.341 251.993 121.394C252.588 125.217 253.875 127.623 255.81 128.579C258.762 129.955 262.32 127.476 262.354 127.456C262.396 127.425 262.443 127.404 262.492 127.393C262.542 127.383 262.593 127.382 262.642 127.393C262.692 127.403 262.739 127.424 262.782 127.454C262.824 127.484 262.86 127.523 262.888 127.568C262.944 127.658 262.964 127.768 262.945 127.874C262.926 127.98 262.869 128.074 262.786 128.135C261.388 129.063 259.8 129.621 258.155 129.763Z" fill="#231F20"/>
<path d="M257.66 111.393C257.563 111.398 257.468 111.364 257.394 111.297C257.32 111.231 257.272 111.137 257.261 111.035C257.155 110.119 256.877 109.57 256.416 109.353C255.529 108.918 253.956 109.861 253.439 110.264C253.357 110.328 253.254 110.355 253.154 110.338C253.053 110.321 252.962 110.263 252.902 110.175C252.841 110.088 252.816 109.979 252.831 109.872C252.846 109.765 252.9 109.669 252.982 109.605C253.074 109.536 255.21 107.901 256.718 108.61C257.112 108.838 257.442 109.175 257.671 109.586C257.9 109.997 258.02 110.466 258.018 110.942C258.025 110.995 258.021 111.049 258.007 111.1C257.994 111.152 257.971 111.2 257.94 111.241C257.909 111.283 257.871 111.318 257.827 111.344C257.783 111.37 257.735 111.386 257.685 111.392L257.66 111.393Z" fill="#231F20"/>
<path d="M267.464 115.483C267.369 115.488 267.276 115.455 267.202 115.39C267.128 115.326 267.08 115.234 267.066 115.134C267.066 115.134 266.794 113.12 265.678 112.437C264.713 111.83 263.698 113.373 263.69 113.392C263.661 113.436 263.625 113.473 263.583 113.502C263.541 113.531 263.494 113.551 263.444 113.56C263.395 113.569 263.344 113.568 263.295 113.556C263.246 113.545 263.199 113.523 263.158 113.492C263.116 113.462 263.08 113.424 263.051 113.379C263.023 113.334 263.004 113.284 262.994 113.231C262.984 113.179 262.984 113.125 262.994 113.072C263.004 113.02 263.024 112.97 263.052 112.926C263.543 112.164 264.799 110.941 266.068 111.736C267.507 112.642 267.811 114.95 267.824 115.041C267.831 115.094 267.829 115.148 267.816 115.2C267.804 115.252 267.782 115.3 267.752 115.343C267.722 115.385 267.684 115.421 267.641 115.448C267.598 115.475 267.55 115.492 267.5 115.499L267.464 115.483Z" fill="#231F20"/>
<path d="M236.971 114.75C236.907 116.222 237.219 117.687 237.872 118.991C239.218 121.349 242.29 122.184 244.722 121.281C251.076 118.932 253.536 105.716 248.403 100.826C243.633 96.2865 238.854 104.06 238.009 108.552C237.619 110.663 236.936 112.632 236.971 114.75Z" fill="#231F20"/>
<path d="M243.027 122.037C241.962 122.119 240.894 121.9 239.931 121.402C238.969 120.904 238.145 120.144 237.545 119.201C236.847 117.837 236.516 116.296 236.59 114.75C236.633 113.206 236.849 111.673 237.232 110.185C237.36 109.616 237.488 109.048 237.598 108.48C238.198 105.354 240.754 100.427 243.998 99.3005C244.798 99.032 245.653 99.0047 246.469 99.2216C247.285 99.4385 248.03 99.8912 248.622 100.53C251.102 102.887 252.091 107.326 251.209 112.116C250.327 116.905 247.883 120.573 244.818 121.645C244.241 121.862 243.639 121.994 243.027 122.037ZM237.352 114.75C237.283 116.151 237.576 117.549 238.2 118.79C238.904 119.841 239.913 120.617 241.07 120.999C242.227 121.38 243.468 121.345 244.599 120.9C247.414 119.84 249.671 116.43 250.491 111.957C251.31 107.484 250.421 103.298 248.149 101.133C247.658 100.589 247.035 100.2 246.349 100.01C245.664 99.8208 244.943 99.8385 244.269 100.061C241.342 101.127 238.93 105.788 238.377 108.645C238.267 109.221 238.14 109.799 238.012 110.377C237.633 111.801 237.414 113.268 237.361 114.749L237.352 114.75Z" fill="#231F20"/>
<path d="M273.246 121.069C273.085 121.078 272.924 121.038 272.782 120.954C272.581 120.836 272.433 120.639 272.368 120.406C272.303 120.172 272.327 119.922 272.435 119.708C272.522 119.538 281.279 102.299 282.408 91.7654C282.818 87.9484 281.048 84.1832 277.426 81.1448C272.477 77.0012 265.314 75.39 260.394 77.318C251.643 80.752 247.98 102.81 247.938 102.996C247.898 103.234 247.771 103.446 247.585 103.584C247.399 103.723 247.168 103.777 246.943 103.736C246.718 103.694 246.516 103.559 246.383 103.36C246.25 103.161 246.196 102.914 246.233 102.674C246.387 101.745 250.112 79.3803 259.79 75.5875C265.321 73.4267 273.008 75.1136 278.49 79.7011C282.61 83.185 284.615 87.51 284.133 91.9848C282.936 102.881 274.322 119.874 273.959 120.592C273.889 120.73 273.787 120.846 273.662 120.93C273.537 121.013 273.394 121.061 273.246 121.069Z" fill="#231F20"/>
<path d="M326.482 248.976C323.384 249.117 320.282 248.737 317.29 247.851C313.719 246.7 310.377 244.851 307.436 242.4C302.438 238.508 297.972 233.787 293.653 229.253C290.913 226.356 288.081 223.362 285.14 220.613C275.927 211.997 266.982 207.607 258.52 207.58C247.138 207.531 237.413 214.929 228.608 222.927C227.78 223.705 226.885 224.514 226.007 225.331C218.893 231.957 210.827 239.458 200.378 238.303C193.255 237.519 187.515 232.603 183.959 228.622C175.207 218.813 170.646 204.393 171.859 190.133C173.132 174.772 180.595 163.623 194.047 156.991C205.183 151.505 215.583 144.083 225.649 136.907L225.733 136.857C231.966 132.404 238.54 126.773 239.99 118.739C240.012 118.616 240.078 118.507 240.175 118.437C240.273 118.366 240.392 118.34 240.508 118.364C240.624 118.387 240.727 118.459 240.794 118.563C240.861 118.667 240.886 118.794 240.865 118.918C239.353 127.286 232.622 133.063 226.238 137.615L226.163 137.674C216.072 144.87 205.639 152.312 194.443 157.829C181.287 164.308 173.993 175.2 172.747 190.227C171.581 204.218 176.015 218.331 184.576 227.946C188.031 231.822 193.591 236.599 200.452 237.35C210.527 238.468 218.105 231.415 225.426 224.604L228.035 222.191C236.972 214.075 246.849 206.568 258.508 206.622C267.169 206.658 276.308 211.121 285.685 219.885C288.644 222.661 291.485 225.664 294.234 228.571C298.528 233.115 302.967 237.809 307.919 241.658C310.773 244.04 314.015 245.84 317.481 246.966C329.349 250.401 340.81 245.885 351.626 233.531C367.671 215.159 375.895 188.104 374.173 159.215C373.373 145.726 370.488 135.297 365.35 127.32C363.278 124.095 360.686 120.517 356.673 118.862C354.624 118.041 349.907 117.923 348.226 120.724C347.586 121.797 347.577 123.023 347.549 124.581C347.582 125.253 347.533 126.011 347.478 126.833C347.469 126.956 347.415 127.07 347.327 127.149C347.239 127.229 347.125 127.268 347.009 127.257C346.894 127.247 346.787 127.189 346.712 127.095C346.637 127.001 346.599 126.879 346.608 126.756C346.673 125.961 346.673 125.251 346.683 124.569C346.697 122.928 346.715 121.517 347.491 120.225C349.444 116.968 354.627 117.046 356.978 118.009C361.255 119.752 363.905 123.465 366.068 126.778C371.299 134.898 374.227 145.481 375.045 159.144C376.777 188.254 368.481 215.59 352.27 234.135C344.056 243.579 335.406 248.528 326.482 248.976Z" fill="#231F20"/>
<path d="M233.017 50.4533C232.955 50.4558 232.894 50.4446 232.836 50.4205C232.778 50.3964 232.725 50.3598 232.681 50.3132C232.597 50.2296 232.547 50.1147 232.541 49.9929C232.535 49.8711 232.574 49.7518 232.649 49.6604C234.464 47.8112 236.309 46.9465 238.143 47.0776C239.701 47.2266 241.149 48.0109 242.182 49.2661C242.253 49.3623 242.285 49.4837 242.273 49.6046C242.262 49.7256 242.206 49.8366 242.119 49.9143C242.074 49.9523 242.024 49.9806 241.969 49.9976C241.914 50.0146 241.857 50.0199 241.801 50.0132C241.744 50.0066 241.689 49.9881 241.639 49.9589C241.589 49.9297 241.545 49.8902 241.509 49.8429C240.629 48.7863 239.409 48.119 238.092 47.974C236.51 47.8582 234.886 48.6475 233.253 50.3128C233.191 50.3859 233.108 50.4352 233.017 50.4533Z" fill="#231F20"/>
<path d="M266.062 198.031C266.003 198.047 265.941 198.05 265.88 198.04C265.785 197.992 265.711 197.906 265.674 197.802C265.637 197.697 265.639 197.581 265.68 197.479L275.44 173.684C275.483 173.583 275.561 173.504 275.658 173.465C275.755 173.425 275.863 173.429 275.958 173.474C276.054 173.519 276.128 173.603 276.166 173.707C276.203 173.81 276.201 173.925 276.159 174.026L266.405 197.784C266.376 197.855 266.328 197.917 266.267 197.96C266.207 198.004 266.135 198.029 266.062 198.031Z" fill="#231F20"/>
<path d="M245.973 203.561C233.49 204.174 218.609 200.591 217.785 200.392C217.729 200.387 217.674 200.369 217.625 200.339C217.575 200.309 217.532 200.269 217.498 200.22C217.465 200.172 217.441 200.116 217.429 200.057C217.417 199.998 217.417 199.937 217.429 199.878C217.441 199.819 217.465 199.764 217.499 199.716C217.533 199.668 217.576 199.628 217.625 199.599C217.675 199.57 217.73 199.553 217.786 199.548C217.843 199.544 217.9 199.552 217.953 199.573C218.224 199.633 244.796 206.042 256.667 200.529C256.764 200.485 256.873 200.485 256.971 200.526C257.068 200.568 257.147 200.649 257.189 200.752C257.211 200.802 257.223 200.856 257.225 200.91C257.226 200.965 257.218 201.019 257.199 201.07C257.181 201.121 257.153 201.167 257.117 201.206C257.081 201.245 257.038 201.276 256.99 201.296C253.476 202.735 249.746 203.502 245.973 203.561Z" fill="#231F20"/>
<path d="M348.15 122.525L346.266 122.617L346.413 125.596L348.296 125.503L348.15 122.525Z" fill="#231F20"/>
<path d="M348.316 125.908L346.433 126C346.331 126.005 346.231 125.968 346.155 125.896C346.079 125.824 346.032 125.723 346.024 125.615L345.878 122.636C345.875 122.582 345.883 122.528 345.9 122.478C345.917 122.427 345.944 122.381 345.978 122.341C346.012 122.302 346.054 122.27 346.1 122.248C346.146 122.226 346.196 122.214 346.247 122.212L348.13 122.12C348.231 122.115 348.33 122.153 348.405 122.225C348.48 122.298 348.525 122.399 348.53 122.506L348.676 125.485C348.682 125.592 348.647 125.697 348.579 125.776C348.511 125.855 348.417 125.903 348.316 125.908ZM346.773 125.163L347.896 125.108L347.79 122.948L346.667 123.003L346.773 125.163Z" fill="#231F20"/>
<path d="M244.735 118.903L244.081 118.29C245.9 116.164 247.023 113.467 247.283 110.599C247.543 107.731 246.927 104.845 245.525 102.368L246.245 101.863C247.749 104.51 248.413 107.597 248.141 110.666C247.869 113.735 246.675 116.623 244.735 118.903Z" fill="white"/>
<path d="M273.837 129.565L273.017 129.264C275.199 122.217 274.309 117.137 274.307 117.091L275.165 116.92C275.191 117.112 276.094 122.266 273.837 129.565Z" fill="white"/>
<path d="M208.152 87.8476L202.227 94.9633L202.876 95.5759L208.801 88.4602L208.152 87.8476Z" fill="white"/>
<path d="M320.109 177.968L319.77 178.812L326.589 181.951L326.928 181.106L320.109 177.968Z" fill="white"/>
<path d="M144.626 141.337C144.259 141.263 143.867 141.218 143.506 141.106C142.943 140.987 142.417 140.713 141.982 140.313C141.546 139.913 141.215 139.399 141.021 138.823C140.878 138.32 140.837 137.791 140.901 137.272C140.965 136.752 141.133 136.253 141.393 135.81C141.827 135.026 142.408 134.346 143.099 133.811C143.791 133.276 144.579 132.898 145.415 132.7C146.516 132.379 147.02 132.419 148.814 132.791L147.727 110.653L167.971 105.291L167.995 105.788C168.43 114.65 168.865 123.503 169.3 132.366C169.36 133.059 169.271 133.757 169.041 134.407C168.81 135.057 168.443 135.642 167.969 136.118C167.198 136.995 166.222 137.637 165.138 137.979C164.055 138.32 162.904 138.348 161.803 138.061C161.235 137.956 160.704 137.688 160.267 137.288C159.829 136.887 159.501 136.368 159.318 135.787C159.168 135.287 159.123 134.759 159.185 134.24C159.248 133.721 159.418 133.223 159.682 132.783C160.115 131.995 160.698 131.312 161.393 130.776C162.088 130.241 162.88 129.865 163.721 129.672C164.825 129.357 165.994 129.39 167.085 129.765L166.338 114.541L164.901 114.916C160.086 116.197 155.278 117.468 150.479 118.729C150.214 118.798 150.176 118.91 150.189 119.168C150.453 124.555 150.717 129.933 150.981 135.311C151.047 136.135 150.918 136.962 150.605 137.716C150.293 138.47 149.807 139.128 149.193 139.629C148.277 140.443 147.175 140.987 145.997 141.205C145.936 141.225 145.876 141.25 145.818 141.278L144.626 141.337Z" fill="#E6E7E8"/>
<path d="M307.723 66.9397C307.898 66.8455 308.066 66.7387 308.227 66.62C308.476 66.4575 308.68 66.2278 308.819 65.9541C308.957 65.6804 309.026 65.3723 309.017 65.0607C309.003 64.7922 308.934 64.5298 308.814 64.2921C308.695 64.0544 308.528 63.847 308.326 63.6847C307.984 63.3925 307.59 63.1773 307.169 63.0522C306.747 62.9271 306.306 62.8948 305.874 62.9572C305.286 63.0083 304.725 63.2408 304.261 63.6262L301.002 52.8013L290.348 54.0063L290.42 54.2332C291.715 58.5654 293.028 62.8968 294.324 67.2382C294.412 67.5811 294.573 67.8987 294.793 68.1672C295.013 68.4356 295.287 68.6481 295.595 68.7885C296.115 69.0633 296.693 69.1871 297.27 69.1474C297.848 69.1077 298.404 68.9059 298.883 68.5626C299.135 68.4052 299.341 68.1779 299.48 67.9049C299.619 67.632 299.686 67.3235 299.673 67.0124C299.66 66.7446 299.592 66.4826 299.474 66.2448C299.357 66.0071 299.191 65.7993 298.991 65.6359C298.646 65.3402 298.248 65.1223 297.821 64.9959C297.395 64.8694 296.95 64.837 296.512 64.9006C295.93 64.9549 295.376 65.1869 294.917 65.5687L292.736 58.1927L293.494 58.1002L301.064 57.2401C301.202 57.2333 301.237 57.2316 301.279 57.3954C302.066 60.0201 302.871 62.6531 303.641 65.2878C303.746 65.7001 303.948 66.078 304.226 66.3866C304.505 66.6951 304.852 66.9243 305.235 67.0527C305.816 67.2719 306.439 67.327 307.044 67.2127L307.139 67.208L307.723 66.9397Z" fill="#E6E7E8"/>
<path d="M356.639 214.641C356.631 214.467 356.622 214.292 356.613 214.117C356.536 213.638 356.344 213.187 356.055 212.808C355.584 212.15 354.988 211.605 354.306 211.208C353.622 210.789 352.871 210.513 352.092 210.395C351.596 210.318 351.092 210.343 350.606 210.468L350.476 210.474C350.469 210.413 350.466 210.352 350.467 210.29C350.536 209.928 350.605 209.574 350.684 209.229L352.096 202.709C352.612 200.343 353.136 197.976 353.652 195.61L353.645 195.472L353.038 195.447C351.379 195.434 349.741 195.83 348.254 196.603C346.862 197.299 345.729 198.466 345.031 199.923C344.835 200.338 344.692 200.778 344.531 201.219C344.424 201.501 344.343 201.8 344.245 202.09C344.242 202.13 344.244 202.17 344.251 202.21L344.46 202.061C345.123 201.548 345.821 201.088 346.549 200.687C347.673 200.079 348.923 199.777 350.186 199.808C350.732 199.838 351.272 199.938 351.795 200.107C351.793 200.153 351.795 200.199 351.801 200.245C350.943 204.169 350.094 208.091 349.253 212.009C349.243 212.079 349.246 212.151 349.263 212.22C349.37 212.901 349.674 213.53 350.131 214.021C350.712 214.705 351.432 215.24 352.234 215.586L352.923 215.865L353.555 216.028L353.728 216.019C354.246 216.104 354.775 216.078 355.283 215.943C355.712 215.857 356.096 215.609 356.366 215.245C356.452 215.101 356.532 214.952 356.604 214.8L356.639 214.641Z" fill="#E6E7E8"/>
<path d="M145.379 227.042C145.368 226.821 145.357 226.591 145.441 226.366C145.563 225.751 145.833 225.182 146.226 224.715C146.885 223.906 147.697 223.254 148.609 222.801C149.52 222.319 150.512 222.029 151.529 221.948C152.177 221.895 152.831 221.972 153.454 222.176L153.621 222.232C153.622 222.152 153.618 222.072 153.609 221.993C153.586 221.524 153.478 221.078 153.403 220.602C152.932 217.719 152.459 214.846 151.983 211.982C151.466 208.855 150.941 205.739 150.424 202.622L150.415 202.438C150.683 202.425 150.951 202.411 151.204 202.463C153.363 202.586 155.47 203.236 157.36 204.364C159.116 205.395 160.507 207.011 161.318 208.961C161.534 209.525 161.722 210.1 161.879 210.685C162.001 211.066 162.09 211.458 162.196 211.849C162.212 211.899 162.214 211.953 162.203 212.005L161.942 211.788C161.113 211.062 160.236 210.403 159.316 209.815C157.901 208.925 156.302 208.424 154.663 208.357C153.953 208.343 153.244 208.421 152.553 208.59C152.56 208.648 152.563 208.706 152.562 208.765C153.393 213.934 154.239 219.114 155.1 224.307C155.122 224.394 155.126 224.484 155.113 224.573C154.935 225.462 154.499 226.267 153.866 226.874C153.068 227.712 152.097 228.34 151.029 228.709C150.732 228.825 150.425 228.914 150.126 229.011L149.268 229.164L149.13 229.171C148.452 229.25 147.765 229.183 147.111 228.975C146.563 228.83 146.084 228.476 145.763 227.981C145.653 227.788 145.556 227.586 145.474 227.378L145.379 227.042Z" fill="#E6E7E8"/>
<path d="M317.523 105.68C317.624 105.436 317.707 105.183 317.826 104.956C318.198 104.311 318.721 103.781 319.343 103.416C320.39 102.782 321.55 102.386 322.75 102.253C323.958 102.092 325.186 102.178 326.366 102.509C327.122 102.717 327.834 103.079 328.462 103.576L328.633 103.706C328.67 103.619 328.701 103.528 328.723 103.434C328.826 102.886 328.92 102.337 329.006 101.78L330.578 91.4737C331.14 87.7599 331.699 84.0278 332.254 80.2774L332.286 80.0547C332.595 80.1777 332.886 80.2833 333.17 80.4076C335.559 81.4488 337.694 83.0593 339.411 85.1144C341.025 87.0078 342.008 89.4125 342.206 91.9534C342.241 92.6749 342.242 93.3977 342.209 94.1189C342.232 94.6062 342.159 95.0429 342.133 95.5695C342.13 95.6283 342.115 95.6857 342.089 95.7375L341.864 95.3892C341.197 94.2277 340.448 93.1215 339.623 92.0802C338.352 90.4813 336.725 89.246 334.891 88.4881C334.095 88.1746 333.264 87.9707 332.419 87.8814C332.419 87.8814 332.419 87.8814 332.359 87.8844C332.353 87.9564 332.342 88.0278 332.326 88.0979L329.494 106.613C329.479 106.721 329.446 106.826 329.397 106.922C328.868 107.847 328.08 108.572 327.143 108.995C325.928 109.6 324.599 109.902 323.255 109.877C322.875 109.896 322.5 109.859 322.118 109.841L321.114 109.669L320.946 109.604C320.151 109.411 319.4 109.05 318.738 108.542C318.176 108.142 317.763 107.546 317.573 106.857C317.526 106.594 317.493 106.328 317.473 106.06L317.523 105.68Z" fill="#E6E7E8"/>
<path d="M167.286 155.024C162.837 155.243 163.19 162.598 167.648 162.379C172.105 162.16 171.744 154.806 167.286 155.024Z" fill="#E6E7E8"/>
<path d="M324.384 132.345C324.286 132.045 324.121 131.775 323.903 131.557L323.535 131.29C323.265 131.137 322.963 131.063 322.659 131.075L322.175 131.099C321.942 131.099 321.715 131.168 321.518 131.297C321.305 131.377 321.118 131.516 320.975 131.701C320.821 131.871 320.709 132.079 320.649 132.307C320.551 132.53 320.513 132.777 320.537 133.022L320.622 133.516C320.718 133.816 320.883 134.087 321.102 134.303L321.471 134.571C321.741 134.72 322.043 134.791 322.347 134.776L322.831 134.753C323.062 134.756 323.29 134.69 323.488 134.564C323.698 134.478 323.884 134.339 324.031 134.159C324.318 133.785 324.473 133.314 324.468 132.829C324.443 132.674 324.409 132.509 324.384 132.345Z" fill="#E6E7E8"/>
<path d="M176.504 64.6187C173.723 64.7552 173.94 69.3524 176.73 69.2154C179.521 69.0783 179.286 64.4821 176.504 64.6187Z" fill="#E6E7E8"/>
<path d="M310.946 220.414C308.164 220.551 308.39 225.148 311.172 225.011C313.954 224.875 313.728 220.278 310.946 220.414Z" fill="#E6E7E8"/>
<g clip-path="url(#clip0)">
<path opacity="0.18" d="M174.082 60.6761C180.081 73.6204 182.307 89.4504 191.302 99.6978C195.881 104.947 201.798 108.122 207.146 112.212C218.167 120.632 227.081 133.624 229.795 148.831C232.51 164.037 228.294 181.312 217.842 190.646C208.888 198.636 196.528 200.366 188.343 209.463C173.109 226.303 177.988 261.429 159.821 273.508C150.704 279.569 138.913 276.732 130.281 269.709C121.649 262.685 115.565 252.24 109.699 241.988C99.287 223.895 88.8746 205.819 78.4623 187.76C73.5988 179.336 68.654 170.678 66.8307 160.717C64.4821 147.821 67.9402 133.673 75.7476 124.291C86.1588 111.825 103.623 107.16 109.256 90.9087C112.048 82.7741 111.079 73.5852 110.672 64.8269C108.405 15.3469 160.024 30.2634 174.082 60.6761Z" fill="#FFD400"/>
<path d="M142.682 50.1828C142.072 50.4243 138.185 58.4624 138.185 58.4624L139.886 58.0758C139.886 58.0758 140.996 54.3687 144.384 54.3687C144.384 54.4653 144.043 49.6557 142.682 50.1828Z" fill="url(#paint0_linear)"/>
<path d="M91.4253 243.917C91.4253 243.917 100.653 246.653 102.291 242.129C102.384 241.885 102.45 241.628 102.487 241.365C103.338 235.782 100.786 211.532 100.786 211.532C100.786 211.532 122.503 193.822 131.853 196.852C139.764 199.404 178.742 247.189 190.858 262.154C191.916 263.465 193.288 264.357 194.788 264.71C196.288 265.063 197.843 264.859 199.242 264.126C200.06 263.692 200.788 263.05 201.373 262.246C201.959 261.441 202.389 260.494 202.633 259.47C202.877 258.447 202.928 257.372 202.784 256.323C202.64 255.273 202.303 254.274 201.798 253.395L161.426 184.181L159.166 180.302L122.496 171.078C122.496 171.078 84.6128 189.798 80.7627 197.402C76.9127 205.005 91.4253 243.917 91.4253 243.917Z" fill="#FFD400"/>
<path d="M119.633 163.027C119.674 167.261 120.162 171.64 122.063 175.198C125.347 181.347 131.953 183.544 137.948 185.208C141.717 186.267 145.567 187.325 149.454 186.891C153.341 186.456 157.243 184.312 159.155 180.302C159.161 180.284 159.17 180.268 159.181 180.254C160.353 177.75 160.638 174.816 160.882 171.974C162.177 157.919 163.471 143.599 162.55 129.544C162.316 125.822 161.903 122.119 161.315 118.453C161.137 117.329 160.945 116.213 160.719 115.097C159.798 110.327 157.709 102.553 154.243 97.7959C152.361 95.2088 150.075 93.5178 147.349 93.6847C143.943 93.9263 140.5 94.3084 137.097 94.8399C134.627 95.2791 131.994 95.8018 130.089 97.774C126.886 101.046 126.927 106.871 126.723 111.922C126.028 129.197 119.504 145.725 119.633 163.027Z" fill="#FFD400"/>
<path d="M148.799 94.7433C148.718 97.0053 141.746 102.118 140.293 101.253C137.896 101.613 137.094 100.853 136.687 98.7843C136.121 95.8985 135.918 92.7228 137.012 89.9995C137.863 87.8341 139.483 86.1518 141.306 85.0933C143.211 83.9864 149.073 81.4344 150.626 84.2763C151.81 86.4285 148.851 92.0464 148.799 94.7433Z" fill="url(#paint1_linear)"/>
<path d="M139.723 70.1021C136.725 70.1021 134.294 66.936 134.294 63.0304C134.294 59.1248 136.725 55.9587 139.723 55.9587C142.722 55.9587 145.153 59.1248 145.153 63.0304C145.153 66.936 142.722 70.1021 139.723 70.1021Z" fill="url(#paint2_linear)"/>
<path d="M140.09 56.9206C139.476 57.87 138.958 58.902 138.547 59.9953C136.643 64.5194 134.742 68.9952 132.837 73.5194C131.946 75.6848 130.988 78.0391 131.376 80.4461C131.609 81.786 132.154 83.0216 132.948 84.0127C134.148 85.6527 135.684 86.8965 137.408 87.6232C140.041 88.7301 143.037 88.5368 145.711 87.4783C148.385 86.4197 150.778 84.5881 152.964 82.471C154.706 80.7887 156.37 78.8649 157.343 76.4095C158.153 74.2924 158.275 66.1622 157.827 64.5238C156.618 59.6659 153.541 57.4389 149.853 55.6205C146.451 53.9865 142.804 52.928 140.09 56.9206Z" fill="url(#paint3_linear)"/>
<path d="M149.084 40.8973C147.657 39.3429 145.884 38.3077 143.977 37.9149C142.194 37.5283 140.249 37.7216 138.71 38.9251C137.171 40.1286 136.158 42.3424 136.561 44.4595C137.212 48.2589 141.369 49.4624 143.218 52.6864C143.988 54.0041 144.328 55.5722 144.879 57.0173C146.055 59.8064 148.648 62.0202 151.24 61.3481C152.62 60.9616 154.199 59.903 155.309 60.9616C156.159 61.783 155.593 63.3686 155.915 64.6204C158.671 75.7858 151.214 81.5091 151.477 82.1899C151.925 83.5076 161.485 83.8238 162.661 83.5822C163.837 83.3407 164.806 82.4271 165.62 81.4168C167.928 78.676 169.466 74.4901 168.335 70.8312C167.887 69.3905 167.077 68.0904 167.036 66.5487C166.996 65.1519 167.643 63.9133 168.05 62.5956C169.67 57.6366 167.765 51.4302 163.874 48.8343C162.672 48.0995 161.411 47.5108 160.109 47.0773C158.001 46.3087 155.893 45.6806 153.789 44.9602C151.758 44.2179 150.623 42.5312 149.084 40.8973Z" fill="#3F3D56"/>
<path d="M149.772 78.7199C148.799 82.8575 150.338 86.9468 153.215 87.9087C156.093 88.8707 159.173 86.2748 160.146 82.1372C161.119 77.9996 159.577 73.9059 156.699 72.944C153.822 71.982 150.745 74.5691 149.772 78.7199Z" fill="url(#paint4_linear)"/>
<path d="M154.147 76.023L159.214 77.5164C173.476 48.7904 159.455 40.6557 158.242 39.9837C158.201 39.9837 158.201 39.9354 158.16 39.9354C159.176 40.7577 160.021 41.8436 160.631 43.111C165.897 53.925 154.147 76.023 154.147 76.023Z" fill="url(#paint5_linear)"/>
<path d="M150.257 42.6762L150.786 43.0144L153.785 44.9383C157.147 42.5049 159.373 42.6279 160.686 43.1593C160.331 42.4299 159.889 41.7655 159.373 41.1872C158.997 40.7474 158.592 40.3449 158.16 39.9837C154.769 38.0598 150.257 42.6762 150.257 42.6762Z" fill="url(#paint6_linear)"/>
<path d="M150.786 43.0144L153.785 44.9383C157.147 42.5049 159.373 42.6279 160.686 43.1594C160.331 42.4299 159.889 41.7656 159.373 41.1872C159.133 40.9456 158.848 40.6557 158.563 40.4142C155.486 38.6836 151.514 42.2941 150.786 43.0144Z" fill="url(#paint7_linear)"/>
<path d="M154.351 103.163C153.744 104.481 154.147 106.097 154.554 107.494C155.294 109.998 156.722 115.677 158.401 120.733C159.695 124.62 161.141 128.134 162.543 129.544C162.617 129.619 162.687 129.689 162.761 129.75C165.387 120.131 170.158 121.497 175.177 120.197C179.674 119.042 190.048 117.935 194.586 117.021C201.88 115.581 205.767 116.349 205.563 108.794C205.445 103.163 201.595 98.4021 197.301 95.9467C193.007 93.4914 188.184 92.7227 183.565 91.2777C178.783 89.7887 174.407 85.7916 169.707 84.3992C165.816 83.2924 163.345 86.4197 161.57 91.0361C161.317 91.5615 161.217 92.1713 161.285 92.7711C161.461 93.3559 161.787 93.8601 162.217 94.2118C168.327 100.484 171.412 99.364 179.068 102.298C172.536 101.481 163.693 98.4196 154.236 97.7959C153.134 97.7169 152.024 97.6773 150.908 97.6773C150.016 97.6773 154.769 102.201 154.351 103.163Z" fill="#FFD400"/>
<path d="M73.3139 60.4828C73.436 61.3613 73.9612 62.0201 74.5307 62.6482C79.96 68.903 85.4301 75.1577 90.8594 81.3641C99.7726 91.6159 108.686 101.815 117.599 112.067C121.046 116.02 125.055 120.245 129.878 120.149C130.891 114.904 133.525 105.57 132.43 100.278C132.249 99.3991 133.639 96.7022 133.17 95.9687C133.073 95.8106 129.349 95.3933 128.236 94.5456C125.976 92.815 123.306 91.4314 121.442 89.9775C111.965 82.6058 103.143 74.1098 95.1126 64.6204C91.1035 59.8547 87.013 54.6629 82.0719 51.6849C81.3847 51.2679 80.6784 50.8969 79.9563 50.5736C79.1001 50.191 78.2212 49.8842 77.3267 49.6556C76.1506 52.4931 74.9758 55.332 73.8021 58.1724C73.5174 58.8928 73.1919 59.6658 73.3139 60.4828Z" fill="#FFD400"/>
<path d="M75.2521 46.2867C75.008 43.4493 75.1707 40.4142 74.1426 37.8666C73.9022 37.2385 73.3733 36.5181 72.8074 36.7114C72.3192 36.8563 72.1158 37.5899 71.9975 38.1521C71.6276 40.5591 71.9568 43.2077 70.9434 45.3731C68.5912 41.4727 66.2833 37.5284 63.9163 33.6324C63.5132 32.9559 62.9473 32.2356 62.2964 32.4772C62.4185 36.1316 64.0384 39.4522 65.5806 42.5796C64.9297 41.8109 63.7573 42.3424 63.3616 43.3043C62.9658 44.2663 63.1989 45.4215 63.6057 46.379C63.2539 46.0871 62.8217 45.965 62.3969 46.0376C61.9721 46.1102 61.5864 46.3721 61.3182 46.77C61.05 47.1679 60.9193 47.6721 60.9526 48.1803C60.9859 48.6884 61.1807 49.1625 61.4976 49.5063L56.1089 47.6308C56.0682 48.786 57.0002 49.5547 57.8509 50.1301C63.9274 54.316 70.0891 58.5546 76.8942 60.4785C78.1517 58.1198 79.6903 55.3789 78.0038 53.1652C76.4356 51.0041 75.5036 49.3175 75.2521 46.2867Z" fill="url(#paint8_linear)"/>
<path d="M70.5589 47.7758C70.6536 47.9988 70.6773 48.2549 70.6256 48.497C70.574 48.7391 70.4505 48.9509 70.2778 49.0935C70.0626 49.2153 69.8235 49.2654 69.5862 49.2384C68.5024 49.2023 67.4495 48.8018 66.5498 48.0832C67.6815 49.0935 68.8576 50.2003 69.3051 51.7904C69.3544 51.8927 69.3804 52.0085 69.3804 52.1264C69.3804 52.2443 69.3544 52.3601 69.3051 52.4624C69.2025 52.613 69.0584 52.7157 68.8983 52.7523C67.5631 53.0422 66.3464 51.8387 65.1296 51.07C64.3603 50.5869 63.5503 50.2487 62.781 49.7216C61.9987 49.2561 61.4021 48.4434 61.1204 47.4595C61.0593 47.272 61.0456 47.0673 61.0811 46.8707C61.1166 46.674 61.1997 46.494 61.3202 46.3526C61.466 46.2653 61.6283 46.2238 61.7915 46.2323C61.9547 46.2408 62.1133 46.2988 62.2521 46.4009C63.1435 46.7831 64.0348 47.1696 64.9261 47.6045C64.3792 47.1477 63.9248 46.552 63.596 45.8606C63.2671 45.1692 63.0721 44.3995 63.0251 43.6074C63.0031 43.3586 63.0443 43.1077 63.1435 42.8871C63.8832 41.6352 66.387 43.4668 67.1156 44.0906C67.6001 44.5298 68.0476 45.0525 68.5321 45.5357C69.1831 46.1418 70.1964 46.8138 70.5589 47.7758Z" fill="url(#paint9_linear)"/>
<path d="M162.291 75.5442C162.857 75.5442 163.183 76.2646 163.401 76.8927C163.709 77.9907 163.82 79.1534 163.726 80.3056C163.677 81.1108 163.418 81.8781 162.987 82.5017C161.57 84.3817 159.381 82.0625 159.381 80.0508C159.373 78.7199 161.038 75.4959 162.291 75.5442Z" fill="url(#paint10_linear)"/>
<path d="M103.257 253.826C103.559 255.308 103.722 256.825 103.745 258.35C103.754 258.635 103.698 258.917 103.582 259.167C103.422 259.435 103.196 259.638 102.935 259.747C100.128 261.327 96.911 261.534 93.9772 260.322C93.6254 260.222 93.3117 259.986 93.0859 259.65C92.9676 259.4 92.9055 259.118 92.9055 258.831C92.9055 258.544 92.9676 258.262 93.0859 258.012C93.3198 257.53 93.5779 257.065 93.8589 256.619C94.7095 254.981 94.6282 252.961 94.4654 251.037C94.2555 248.725 93.9444 246.427 93.5334 244.154C93.4114 243.53 100.501 242.568 101.433 243.868C102.04 244.685 102.04 246.802 102.203 247.821C102.528 249.824 102.894 251.805 103.257 253.826Z" fill="url(#paint11_linear)"/>
<path d="M100.461 253.009C101.277 252.612 102.136 252.353 103.013 252.24C103.904 252.192 104.836 252.578 105.284 253.492C105.471 253.89 105.582 254.333 105.609 254.788C106.175 258.398 106.741 262.009 107.351 265.663C107.472 266.151 107.472 266.669 107.351 267.157C107.148 267.829 106.541 268.264 105.931 268.505C104.026 269.322 101.962 269.384 99.9762 269.419L79.2649 269.858C78.9587 269.889 78.651 269.822 78.3736 269.665C77.6339 269.182 77.9261 267.833 78.4143 267.064C80.0342 264.275 82.8524 262.927 85.4229 261.433C86.7833 260.699 88.0536 259.749 89.199 258.609C90.1717 257.551 90.7782 255.627 91.9136 254.805C92.805 254.182 93.859 254.366 94.8317 254.327C96.7452 254.152 98.6345 253.709 100.461 253.009Z" fill="#FFD400"/>
<path d="M101.921 274.422C100.179 274.518 98.4745 275.3 96.7436 275.625C94.9153 275.891 93.0693 275.939 91.2329 275.77C88.4406 275.577 85.6039 275.432 82.8079 275.243C81.6725 275.195 80.4557 275.098 79.4793 274.364C78.5029 273.631 77.8187 272.168 78.3069 270.947C78.8321 269.603 80.3299 269.265 81.5874 269.168C88.7994 268.545 96.0927 267.486 103.345 267.244C105.494 267.196 108.815 267.772 108.571 271.237C108.201 275.146 104.148 274.277 101.921 274.422Z" fill="#FFD400"/>
<path d="M91.3034 255.095C91.4351 254.732 91.4546 254.326 91.3586 253.947C91.2625 253.569 91.057 253.243 90.7782 253.026C90.4914 252.823 90.1551 252.741 89.824 252.794C89.493 252.846 89.1866 253.031 88.9549 253.316C88.4667 253.988 88.4667 254.95 88.4297 255.82C88.3051 257.58 87.7396 259.255 86.8061 260.63" fill="#FFD400"/>
<path d="M202.234 258.46C203.936 261.925 206.78 266.05 209.132 268.887C207.653 271.962 204.106 272.884 201.365 271.632C198.625 270.381 196.583 267.495 195.207 264.367C198.207 263.357 199.901 260.854 202.234 258.46Z" fill="url(#paint12_linear)"/>
<path d="M197.038 270.881C197.44 271.708 197.922 272.476 198.473 273.17C200.744 276.157 203.011 279.187 205.282 282.17C206.133 283.277 206.983 284.432 208.16 284.915C209.169 285.354 210.264 285.249 211.359 285.152C215.516 284.801 219.673 284.414 223.863 284.063L225.135 283.949C225.613 283.948 226.083 283.818 226.511 283.567C227.687 282.75 227.484 280.676 226.918 279.236C226.297 277.681 225.41 276.297 224.315 275.171C223.22 274.044 221.941 273.2 220.557 272.691C218.611 271.971 216.488 271.922 214.721 270.864C213.263 269.985 212.209 268.602 211.074 267.35C209.454 265.523 209.225 264.846 207.105 265.808C206.34 266.098 196.609 269.107 196.609 268.417C196.519 269.272 196.67 270.139 197.038 270.881Z" fill="#FFD400"/>
<path d="M222.45 287.124C217.994 287.801 213.496 288.473 209.04 288.442C207.854 288.501 206.67 288.289 205.552 287.818C204.997 287.57 204.505 287.157 204.122 286.619C203.74 286.08 203.48 285.435 203.366 284.744C203.285 284.019 203.488 283.202 204.054 282.96C204.213 282.905 204.377 282.872 204.542 282.864C210.981 282.143 217.383 281.375 223.826 280.668C226.016 280.426 228.893 281.001 229.004 284.322C229.108 287.366 224.3 286.839 222.45 287.124Z" fill="#FFD400"/>
<path d="M166.508 84.6716C165.209 84.8649 164.074 83.6614 163.508 82.269C162.942 80.8766 162.82 79.3305 162.399 77.8766C161.745 75.8238 160.522 74.0965 158.932 72.9788C157.341 71.8612 155.478 71.4198 153.648 71.7273C153.544 71.7331 153.443 71.7666 153.351 71.8251C153.26 71.8836 153.18 71.9658 153.119 72.0655C152.997 72.3554 153.201 72.6409 153.404 72.8825C154.287 73.8832 155.355 74.6247 156.522 75.0479C154.303 74.1343 151.714 73.7961 149.391 74.4725C149.513 75.0479 150.001 75.4345 150.405 75.7244C152.254 77.0684 154.103 78.3598 155.952 79.717C154.048 78.4652 151.98 77.1167 149.794 77.2617C149.55 77.7932 149.998 78.3686 150.401 78.7068C151.821 79.9586 153.197 81.2104 154.617 82.4579C153.596 81.7193 152.443 81.2755 151.251 81.1621C151.991 82.9893 153.966 83.4681 154.98 85.1152C155.305 85.7628 155.589 86.4381 155.83 87.1357C156.728 89.4537 158.294 91.3139 160.246 92.3802C160.616 92.5735 161.056 92.7184 161.382 92.4285C161.535 92.2588 161.647 92.0434 161.707 91.8048C162.698 88.919 164.318 86.2748 166.508 84.6716Z" fill="url(#paint13_linear)"/>
<path d="M141.543 101.569C141.543 101.569 140.803 110.96 141.14 114.619C141.476 118.278 137.049 154.844 136.702 166.633C136.354 178.422 138.769 177.614 138.769 177.614C144.886 181.273 159.192 180.311 159.192 180.311L160.771 183.535C160.771 183.535 150.641 184.976 138.211 181.655C131.267 179.75 124.526 176.926 118.113 173.235L120.828 171.886C120.828 171.886 133.51 177.135 138.777 177.596" stroke="#C4BC3B" stroke-width="0.577527" stroke-miterlimit="10"/>
<path d="M79.6902 49.9939C79.6902 49.9939 82.3235 54.8519 80.6222 59.3277C78.9209 63.8035 75.5849 63.8035 75.5849 63.8035" stroke="white" stroke-width="0.504023" stroke-miterlimit="10"/>
<path d="M138.577 175.817C140.585 181.378 158.371 180.35 159.148 180.302C159.154 180.284 159.163 180.268 159.174 180.254C160.346 177.75 160.631 174.816 160.875 171.974C162.169 157.919 163.464 143.6 162.543 129.544C162.617 129.619 162.687 129.689 162.761 129.75C165.387 120.131 170.158 121.497 175.177 120.197C179.674 119.042 190.048 117.935 194.586 117.021C201.88 115.581 205.767 116.349 205.563 108.794C205.563 108.794 171.663 115.655 165.272 117.013C163.903 117.284 162.57 117.769 161.308 118.453C160.246 119.032 159.266 119.801 158.401 120.733C156.829 122.433 155.812 124.462 154.776 126.496C152.727 130.563 152.269 159.825 150.671 169.308C149.073 178.791 138.577 175.817 138.577 175.817Z" fill="url(#paint14_linear)"/>
<path d="M191.073 103.405C189.32 101.648 187.056 100.8 184.878 99.9306C178.267 97.2927 171.845 94.032 165.672 90.1796C165.342 89.9425 164.978 89.7774 164.599 89.692C163.094 89.4812 162.251 91.6642 161.899 93.4168C163.471 93.856 164.559 95.4943 165.794 96.7374C169.392 100.344 173.949 100.181 178.232 101.617C180.048 102.223 181.475 102.764 183.41 102.895L187.337 103.155C188.055 103.203 190.555 102.882 191.073 103.405Z" fill="url(#paint15_linear)"/>
<path d="M82.0719 51.6849L82.2198 57.395C82.2198 57.395 120.477 100.484 135.537 98.8589C138.536 98.5339 132.822 96.4299 133.177 95.9687C133.218 95.9116 128.243 94.5456 128.243 94.5456C125.984 92.815 123.313 91.4314 121.449 89.9775C111.97 82.6063 103.146 74.1103 95.1126 64.6204C91.1035 59.8547 87.013 54.663 82.0719 51.6849Z" fill="url(#paint16_linear)"/>
<path d="M154.236 97.7959C154.236 97.7959 149.188 103.067 143.599 102.109C138.011 101.152 141.543 101.569 141.543 101.569C141.543 101.569 149.188 97.5017 149.188 93.7111C149.188 89.9205 154.236 97.7959 154.236 97.7959Z" fill="#68E1FD"/>
<path d="M133.177 95.9687C133.177 95.9687 132.127 99.8384 137.319 102.474C142.512 105.109 139.313 103.278 139.313 103.278C139.313 103.278 135.097 94.2425 136.753 90.979C138.41 87.7155 133.177 95.9687 133.177 95.9687Z" fill="black"/>
<path d="M133.177 95.9687C133.177 95.9687 133.062 97.1415 136.754 100.124L138.806 101.389C138.806 101.389 135.108 94.2425 136.754 91.001C138.399 87.7594 133.177 95.9687 133.177 95.9687Z" fill="#FFD400"/>
<path d="M154.236 97.796C154.236 97.796 149.203 102.909 143.599 102.109C141.695 101.837 141.38 101.262 141.38 101.262C141.38 101.262 149.18 97.5017 149.18 93.7111C149.18 89.9205 154.236 97.796 154.236 97.796Z" fill="#FFD400"/>
<path d="M95.9115 208.874C96.2518 214.584 98.6521 242.204 98.6521 242.204L102.291 242.129C102.384 241.885 102.45 241.628 102.487 241.365C103.338 235.782 100.786 211.532 100.786 211.532C100.786 211.532 122.503 193.822 131.853 196.853C131.853 196.853 126.361 191.801 121.912 192.614C117.462 193.426 98.2933 203.182 98.2933 203.182C98.2933 203.182 95.5713 203.182 95.9115 208.874Z" fill="url(#paint17_linear)"/>
<path d="M147.934 184.08C151.355 185.705 161.618 199.927 170.18 212.12C178.191 223.54 199.993 255.051 202.726 259C202.815 258.505 202.86 258 202.86 257.493C202.86 256.031 202.489 254.603 201.794 253.395L161.426 184.181C156.071 184.817 147.934 184.08 147.934 184.08Z" fill="url(#paint18_linear)"/>
<path d="M197.038 270.881C197.44 271.708 197.922 272.476 198.473 273.17C200.744 276.157 203.011 279.187 205.282 282.17C206.133 283.277 206.983 284.432 208.16 284.915C209.169 285.354 210.264 285.249 211.359 285.152C215.516 284.801 219.673 284.414 223.863 284.063C223.929 283.673 223.945 283.273 223.911 282.877C223.897 282.356 223.753 281.851 223.497 281.427C223.278 281.132 223.003 280.901 222.694 280.755C221.637 280.198 220.442 280.167 219.284 280.154L211.381 280.031C210.371 280.031 209.317 279.987 208.422 279.442C207.987 279.158 207.581 278.818 207.209 278.427C206.223 277.464 205.237 276.499 204.25 275.533C202.553 273.877 200.833 272.195 198.817 271.141C198.269 270.805 197.638 270.713 197.038 270.881Z" fill="#C09F00"/>
<path d="M104.47 255.095C104.39 254.812 104.228 254.572 104.012 254.419C103.796 254.266 103.541 254.21 103.294 254.261C102.459 254.238 101.627 254.387 100.834 254.7C98.985 255.552 97.8754 257.84 97.1357 260.023C96.5033 261.815 95.9226 263.739 94.6689 264.982C93.9063 265.651 93.07 266.192 92.1835 266.59C90.3318 267.568 88.5506 268.724 86.8578 270.047C86.7357 270.143 86.5989 270.284 86.6322 270.451C86.6654 270.618 86.7764 270.649 86.88 270.697C87.6282 270.977 88.4112 271.103 89.1952 271.07C90.7346 271.045 92.2717 270.92 93.7998 270.697C96.438 270.354 99.0688 269.944 101.692 269.467C102.938 269.283 104.165 268.955 105.357 268.488C105.696 268.363 106.01 268.156 106.278 267.881C106.602 267.474 106.804 266.95 106.852 266.392C106.925 265.372 106.851 264.344 106.633 263.353C106.378 261.842 106.171 260.309 105.894 258.811C105.657 257.731 105.147 255.895 104.47 255.095Z" fill="url(#paint19_linear)"/>
<path d="M103.76 270.183C104.34 269.961 104.947 269.853 105.557 269.862C105.86 269.877 106.156 269.98 106.418 270.162C106.68 270.344 106.9 270.6 107.059 270.908C107.429 271.755 107.059 272.862 106.397 273.424C105.709 273.936 104.902 274.175 104.093 274.11C103.288 274.042 102.481 274.05 101.677 274.132C100.831 274.29 100.046 274.738 99.2217 275.01C98.3087 275.271 97.3754 275.418 96.4368 275.449C91.6584 275.774 86.7061 275.801 82.2828 273.627C82.0928 273.564 81.9301 273.418 81.8279 273.218C81.7875 273.067 81.7948 272.903 81.8486 272.757C81.9024 272.612 81.9988 272.495 82.12 272.427C82.3666 272.306 82.6345 272.258 82.9004 272.287C86.0885 272.353 89.2987 272.621 92.4794 272.362C96.2873 272.042 100.063 271.313 103.76 270.183Z" fill="#FFD400"/>
<path d="M208.363 273.306C206.565 272.648 204.947 271.436 203.673 269.792C203.598 269.717 203.552 269.609 203.544 269.493C203.554 269.432 203.575 269.374 203.606 269.323C203.636 269.273 203.676 269.23 203.721 269.199C205.082 267.965 206.671 267.133 208.355 266.77C208.656 266.677 208.973 266.687 209.269 266.801C209.565 266.992 209.813 267.274 209.986 267.618C210.913 269.115 212.026 270.438 213.285 271.54C213.489 271.72 213.722 271.953 213.692 272.252C213.653 272.452 213.548 272.626 213.4 272.735C212.717 273.361 211.904 273.755 211.048 273.874C210.191 273.994 209.323 273.836 208.537 273.416" fill="url(#paint20_linear)"/>
<path d="M91.4993 118.133L72.1306 106.273L72.9997 127.585C72.9997 127.585 75.0819 134.679 77.8594 132.039C80.637 129.399 74.664 124.95 74.664 124.95L74.5271 114.724L89.3838 123.298L89.1027 135.667C89.1027 135.667 91.3218 144.074 93.6851 141.272C96.0484 138.469 91.1886 132.865 91.1886 132.865L91.4993 118.133Z" fill="#FFD400"/>
<path d="M195.944 144.474L191.99 125.428C191.99 125.428 185.603 131.529 186.572 135.97C187.541 140.411 191.154 141.575 191.154 141.575C191.154 141.575 189.212 137.784 189.627 136.466C190.041 135.149 192.334 132.838 192.334 132.838L195.452 148.361C195.452 148.361 199.616 155.942 201.421 150.504C203.226 145.066 195.944 144.474 195.944 144.474Z" fill="#231F20"/>
</g>
<defs>
<linearGradient id="paint0_linear" x1="144.372" y1="54.3028" x2="138.174" y2="54.3028" gradientUnits="userSpaceOnUse">
<stop offset="0.01"/>
<stop offset="1" stop-opacity="0"/>
</linearGradient>
<linearGradient id="paint1_linear" x1="150.9" y1="92.1518" x2="136.191" y2="92.1518" gradientUnits="userSpaceOnUse">
<stop stop-color="#ECC4D7"/>
<stop offset="0.42" stop-color="#EFD4D1"/>
<stop offset="1" stop-color="#F2EAC9"/>
</linearGradient>
<linearGradient id="paint2_linear" x1="-4339.11" y1="-7158.89" x2="-4591.14" y2="-7158.89" gradientUnits="userSpaceOnUse">
<stop offset="0.01"/>
<stop offset="1" stop-opacity="0"/>
</linearGradient>
<linearGradient id="paint3_linear" x1="-9814.44" y1="17381.6" x2="-11753.5" y2="17381.6" gradientUnits="userSpaceOnUse">
<stop stop-color="#ECC4D7"/>
<stop offset="0.42" stop-color="#EFD4D1"/>
<stop offset="1" stop-color="#F2EAC9"/>
</linearGradient>
<linearGradient id="paint4_linear" x1="-4015.9" y1="7535.35" x2="-4209.74" y2="7535.35" gradientUnits="userSpaceOnUse">
<stop offset="0.01"/>
<stop offset="1" stop-opacity="0"/>
</linearGradient>
<linearGradient id="paint5_linear" x1="-3852.91" y1="20148.4" x2="-4205.64" y2="20148.4" gradientUnits="userSpaceOnUse">
<stop offset="0.01"/>
<stop offset="1" stop-opacity="0"/>
</linearGradient>
<linearGradient id="paint6_linear" x1="-3647.28" y1="3145.23" x2="-3939.94" y2="3145.23" gradientUnits="userSpaceOnUse">
<stop offset="0.01"/>
<stop offset="1" stop-opacity="0"/>
</linearGradient>
<linearGradient id="paint7_linear" x1="-3454.17" y1="2894.12" x2="-3718.13" y2="2894.12" gradientUnits="userSpaceOnUse">
<stop offset="0.01"/>
<stop offset="1" stop-opacity="0"/>
</linearGradient>
<linearGradient id="paint8_linear" x1="-13196.6" y1="15824.3" x2="-14582.1" y2="15824.3" gradientUnits="userSpaceOnUse">
<stop stop-color="#ECC4D7"/>
<stop offset="0.42" stop-color="#EFD4D1"/>
<stop offset="1" stop-color="#F2EAC9"/>
</linearGradient>
<linearGradient id="paint9_linear" x1="-5765.46" y1="5835.31" x2="-6012.13" y2="5835.31" gradientUnits="userSpaceOnUse">
<stop stop-color="#ECC4D7"/>
<stop offset="0.42" stop-color="#EFD4D1"/>
<stop offset="1" stop-color="#F2EAC9"/>
</linearGradient>
<linearGradient id="paint10_linear" x1="-1398.32" y1="3810.11" x2="-1450.07" y2="3810.11" gradientUnits="userSpaceOnUse">
<stop stop-color="#ECC4D7"/>
<stop offset="0.42" stop-color="#EFD4D1"/>
<stop offset="1" stop-color="#F2EAC9"/>
</linearGradient>
<linearGradient id="paint11_linear" x1="-5522.49" y1="1936.07" x2="-5839.68" y2="1936.07" gradientUnits="userSpaceOnUse">
<stop stop-color="#ECC4D7"/>
<stop offset="0.42" stop-color="#EFD4D1"/>
<stop offset="1" stop-color="#F2EAC9"/>
</linearGradient>
<linearGradient id="paint12_linear" x1="-3048.54" y1="1146.15" x2="-3573.36" y2="1146.15" gradientUnits="userSpaceOnUse">
<stop stop-color="#ECC4D7"/>
<stop offset="0.42" stop-color="#EFD4D1"/>
<stop offset="1" stop-color="#F2EAC9"/>
</linearGradient>
<linearGradient id="paint13_linear" x1="-5810.88" y1="10171" x2="-6601.14" y2="10171" gradientUnits="userSpaceOnUse">
<stop stop-color="#ECC4D7"/>
<stop offset="0.42" stop-color="#EFD4D1"/>
<stop offset="1" stop-color="#F2EAC9"/>
</linearGradient>
<linearGradient id="paint14_linear" x1="139.439" y1="109.721" x2="396.553" y2="292.973" gradientUnits="userSpaceOnUse">
<stop stop-opacity="0"/>
<stop offset="0.99"/>
</linearGradient>
<linearGradient id="paint15_linear" x1="-9170.65" y1="2005.43" x2="-9220.19" y2="3055.19" gradientUnits="userSpaceOnUse">
<stop stop-opacity="0"/>
<stop offset="0.99"/>
</linearGradient>
<linearGradient id="paint16_linear" x1="-26945.9" y1="4169.64" x2="-30972.6" y2="14703.6" gradientUnits="userSpaceOnUse">
<stop stop-opacity="0"/>
<stop offset="0.99"/>
</linearGradient>
<linearGradient id="paint17_linear" x1="-20138.9" y1="19761.3" x2="-1299.37" y2="25952.1" gradientUnits="userSpaceOnUse">
<stop stop-opacity="0"/>
<stop offset="0.99"/>
</linearGradient>
<linearGradient id="paint18_linear" x1="-25620.4" y1="27136" x2="48222.7" y2="51705.4" gradientUnits="userSpaceOnUse">
<stop stop-opacity="0"/>
<stop offset="0.99"/>
</linearGradient>
<linearGradient id="paint19_linear" x1="97.5796" y1="250.141" x2="94.5264" y2="297.231" gradientUnits="userSpaceOnUse">
<stop stop-opacity="0"/>
<stop offset="0.86" stop-opacity="0.66"/>
<stop offset="0.99"/>
</linearGradient>
<linearGradient id="paint20_linear" x1="-2106.85" y1="4314.27" x2="-2258.95" y2="3813.49" gradientUnits="userSpaceOnUse">
<stop stop-opacity="0"/>
<stop offset="0.99"/>
</linearGradient>
<clipPath id="clip0">
<rect width="286" height="256" fill="white" transform="matrix(-1 0 0 1 286.374 32.4288)"/>
</clipPath>
</defs>
</svg>
