<svg width="64" height="77" viewBox="0 0 64 77" fill="none" xmlns="http://www.w3.org/2000/svg">
<g clip-path="url(#clip0)">
<path d="M15.5589 19.9201C13.4589 17.3867 4.53394 16.7535 1.6464 16.4367C1.38394 16.4367 1.12136 16.4367 0.858902 16.7533C0.596443 17.0701 0.333984 17.7035 0.333984 18.0201V46.5201C0.333984 47.4701 0.859025 48.1035 1.64653 48.1035H9.52153C10.0466 48.1035 10.5715 47.7869 10.8341 47.1535C10.8341 46.2035 15.5591 29.4201 16.0841 21.1869C16.084 20.8701 16.084 20.2369 15.5589 19.9201Z" fill="#FFD400"/>
<path d="M43.6468 27.5201C41.0218 26.5701 38.6593 25.3035 36.5593 24.3535C31.8343 21.8201 29.7342 23.0869 25.5343 28.1535C23.6968 30.3701 22.3843 33.5369 22.6467 34.8035C22.6467 35.1201 22.6467 35.1201 23.1718 35.4369C24.4843 36.0703 26.3218 36.3869 28.1592 32.9035C28.4217 32.5869 28.6843 32.2701 29.2092 32.2701C29.9967 32.2701 30.2591 31.9535 31.0466 31.6368C31.5717 31.3201 32.0966 31.0034 32.8841 30.6868C33.1466 30.6868 33.1466 30.6868 33.4091 30.6868C33.6716 30.6868 34.1966 31.0034 34.4591 31.0034C35.7718 32.5869 38.1343 34.8035 40.4968 37.3369C44.1718 40.8203 47.8467 44.6203 49.6843 47.4703H49.9468C48.1093 41.1369 44.9593 30.3701 43.6468 27.5201Z" fill="black"/>
<path d="M62.0215 19.6035C51.784 19.6035 46.0091 22.7701 45.7465 22.7701C45.484 23.0867 45.2214 23.4035 44.959 23.7201C44.959 24.0368 44.959 24.6701 45.2214 24.9868C46.7964 28.1534 52.0465 45.5701 52.834 50.0034C53.0964 50.6368 53.6215 51.27 54.1465 51.27H62.0215C62.809 51.27 63.3341 50.6366 63.3341 49.6866V21.1866C63.3341 20.2369 62.809 19.6035 62.0215 19.6035Z" fill="#FFD400"/>
<path d="M47.8468 50.6369C46.7968 47.7869 42.3343 43.6703 38.3968 39.8703C36.2968 37.6535 34.1968 35.7535 32.6218 34.1701C32.3593 34.4867 31.8343 34.4867 31.8343 34.8035C31.0468 35.1201 30.7843 35.4369 29.7343 35.4369C27.6343 38.6035 25.0093 39.8701 22.1218 38.6035C20.8093 38.2869 20.0218 37.0201 19.7593 35.7535C19.2343 32.5869 21.5968 28.1535 23.4344 25.9369H18.1843C17.1344 32.2703 15.2968 40.5035 13.9844 44.9369C15.0343 46.2035 16.0844 47.7869 16.8719 48.4203C21.8594 53.4869 27.6345 58.5536 28.6844 59.5036C29.4719 60.137 31.0469 60.7703 31.8344 60.7703C32.0969 60.7703 32.3595 60.7703 32.6219 60.7703L28.4218 55.7035C27.8968 55.0701 27.8968 54.1201 28.4218 53.4869C28.9469 52.8536 29.7344 52.8535 30.2593 53.4869L35.5093 59.8203C36.0344 60.4536 36.5593 60.1369 37.0843 60.1369C37.8718 59.8203 38.1343 59.1869 38.3969 58.2369L32.3593 50.9535C31.8343 50.3201 31.8343 49.3701 32.3593 48.7369C32.8844 48.1036 33.6719 48.1035 34.1968 48.7369L40.7593 56.6535C41.0217 56.9701 42.0718 56.9701 42.8593 56.6535C43.1218 56.3369 43.6468 56.0201 43.9093 55.3869L36.5593 46.5201C36.0343 45.8867 36.0343 44.9367 36.5593 44.3035C37.0843 43.6703 37.8718 43.6701 38.3968 44.3035L46.0093 53.4869C46.5343 53.8035 47.0593 53.4869 47.5843 53.1703C47.8468 52.8535 48.3718 51.9035 47.8468 50.6369Z" fill="black"/>
</g>
<defs>
<clipPath id="clip0">
<rect width="63" height="76" fill="white" transform="translate(0.333984 0.603516)"/>
</clipPath>
</defs>
</svg>
