<svg width="91" height="110" viewBox="0 0 91 110" fill="none" xmlns="http://www.w3.org/2000/svg">
<circle cx="43.4771" cy="61.4849" r="27.3667" fill="black"/>
<path d="M43.4772 28.9783C25.0579 28.9783 10.124 43.9215 10.124 62.3523C10.124 80.7831 25.0579 95.7264 43.4772 95.7264C61.8965 95.7264 76.8304 80.7831 76.8304 62.3523C76.8304 43.9215 61.8965 28.9783 43.4772 28.9783ZM40.7283 57.5826H35.831V70.6958H31.8258V57.5826H26.8006V54.0088H40.7283V57.5826ZM60.1538 70.6958H56.3904V61.4762L53.4359 70.6958H49.3223L46.3789 61.479V70.6958H42.6156V54.0088H48.1411L51.393 64.8637L54.6144 54.0088H60.1538V70.6958Z" fill="#FFD400"/>
</svg>
