<svg width="87" height="86" viewBox="0 0 87 86" fill="none" xmlns="http://www.w3.org/2000/svg">
<path fill-rule="evenodd" clip-rule="evenodd" d="M56.5313 34.0235L59.4468 31.5082C59.0473 30.7895 58.8242 29.9865 58.8242 29.1377C58.8242 26.1017 61.6802 23.6377 65.1992 23.6377C68.7182 23.6377 71.5742 26.1017 71.5742 29.1377C71.5742 32.1737 68.7182 34.6377 65.1992 34.6377C64.2153 34.6377 63.2846 34.4452 62.4516 34.1005L59.5467 36.6067C61.8077 39.0964 63.155 42.2332 63.155 45.6377C63.155 49.0422 61.8077 52.179 59.5467 54.6687L62.4516 57.1749C63.2846 56.8302 64.2153 56.6377 65.1992 56.6377C68.7182 56.6377 71.5742 59.1017 71.5742 62.1377C71.5742 65.1737 68.7182 67.6377 65.1992 67.6377C61.6802 67.6377 58.8242 65.1737 58.8242 62.1377C58.8242 61.2889 59.0473 60.4859 59.4468 59.7672L56.5313 57.2519C53.6605 59.1659 50.0607 60.3044 46.155 60.3044C42.2088 60.3044 38.573 59.142 35.6872 57.1914L32.7016 59.7672C33.1011 60.4859 33.3242 61.2889 33.3242 62.1377C33.3242 65.1737 30.4682 67.6377 26.9492 67.6377C23.4302 67.6377 20.5742 65.1737 20.5742 62.1377C20.5742 59.1017 23.4302 56.6377 26.9492 56.6377C27.9331 56.6377 28.8638 56.8302 29.6968 57.1749L32.6931 54.5899C30.4746 52.113 29.155 49.0074 29.155 45.6377C29.155 42.268 30.4746 39.1624 32.6931 36.6855L29.6968 34.1005C28.8638 34.4452 27.9331 34.6377 26.9492 34.6377C23.4302 34.6377 20.5742 32.1737 20.5742 29.1377C20.5742 26.1017 23.4302 23.6377 26.9492 23.6377C30.4682 23.6377 33.3242 26.1017 33.3242 29.1377C33.3242 29.9865 33.1011 30.7895 32.7016 31.5082L35.6872 34.084C38.573 32.1334 42.2088 30.971 46.155 30.971C50.0607 30.971 53.6605 32.1095 56.5313 34.0235Z" fill="#FFD400"/>
<path d="M47.1242 37.6377L59.5742 41.5608H48.6242L41.6492 53.6377L32.5742 41.5608L41.6492 47.0223L47.1242 37.6377Z" fill="black"/>
</svg>
