<svg width="75" height="67" viewBox="0 0 75 67" fill="none" xmlns="http://www.w3.org/2000/svg">
<path d="M20.8056 21.7782H20.3056V22.2782V48.0594V48.5594H20.8056H58.1139H58.6139V48.0594V22.2782V21.7782H58.1139H20.8056ZM62.2775 19.9865V53.2886H16.6421V19.9865C16.6421 18.2623 17.7616 17.049 18.9402 17.049H59.9793C61.1579 17.049 62.2775 18.2623 62.2775 19.9865ZM66.941 57.1532V58.9448C66.941 60.669 65.8215 61.8823 64.6429 61.8823H14.2766C13.0981 61.8823 11.9785 60.669 11.9785 58.9448V57.1532H34.3544C34.5354 57.9265 35.1274 58.5855 35.9621 58.5855H42.9574C43.7921 58.5855 44.3841 57.9265 44.5652 57.1532H66.941Z" fill="black" stroke="white"/>
<path d="M40.164 53.7886V17.2383C38.2098 18.7029 41.7026 16.549 40.164 16.549L18.9046 16.549C17.366 16.549 16.1198 18.0873 16.1198 19.9865V53.7886H40.164ZM20.7612 22.2782H40.164V48.0594H20.7612V22.2782ZM40.164 60.2286V62.0378C38.6983 62.0378 41.7026 62.3823 40.164 62.3823H14.2633C12.7247 62.3823 11.4785 60.8441 11.4785 58.9448V56.6532H34.6852C34.6852 57.4438 35.205 58.0855 35.8455 58.0855H40.164C38.3145 59.5178 40.8045 58.0855 40.164 58.0855V60.2286Z" fill="#FFD400"/>
<path d="M33.9005 37.1085H33.2168V36.2573H33.9005V37.1085ZM48.9418 36.2573H48.2581V37.1085H48.9418V36.2573ZM35.2679 35.4062H34.5842V37.9597H35.2679V35.4062ZM47.5744 35.4062H46.8907V37.9597H47.5744V35.4062ZM38.0027 35.4062H37.319V37.9597H38.0027V35.4062ZM44.8396 34.555H44.1559V38.8109H44.8396V34.555ZM36.6353 34.555H35.9516V38.8109H36.6353V34.555ZM46.207 33.7038H45.5233V39.6621H46.207V33.7038ZM39.3701 33.7038H38.6864V39.6621H39.3701V33.7038ZM40.7375 32.0014H40.0538V40.5133H40.7375V32.0014ZM43.4722 32.0014H42.7885V40.5133H43.4722V32.0014ZM42.1048 30.299H41.4211V42.2157H42.1048V30.299Z" fill="black"/>
<path d="M33.4355 35.1879H32.7539V37.8233H33.4355V35.1879ZM45.7039 35.1879H45.0223V37.8233H45.7039V35.1879ZM36.1618 35.1879H35.4802V37.8233H36.1618V35.1879ZM44.3407 33.431H43.6592V39.5803H44.3407V33.431ZM38.8881 31.674H38.2065V40.4587H38.8881V31.674ZM41.6144 31.674H40.9329V40.4587H41.6144V31.674Z" fill="#FFD400"/>
</svg>
