<svg width="47" height="48" viewBox="0 0 47 48" fill="none" xmlns="http://www.w3.org/2000/svg">
<g clip-path="url(#clip0)">
<path d="M9.70736 13.7562C14.9993 13.7562 19.2907 18.1409 19.2907 23.5479C19.2907 28.9548 14.9993 33.3395 9.70736 33.3395C4.41544 33.3395 0.124023 28.9548 0.124023 23.5479C0.124023 18.1409 4.41544 13.7562 9.70736 13.7562ZM31.0245 37.3835C30.8846 37.9729 30.7907 38.58 30.7907 39.2145C30.7907 43.5405 34.2234 47.0479 38.4574 47.0479C42.6913 47.0479 46.124 43.5405 46.124 39.2145C46.124 34.8886 42.6913 31.3812 38.4574 31.3812C36.2244 31.3812 34.233 32.3721 32.8319 33.929L22.3133 28.1969C21.8724 29.4424 21.261 30.6037 20.5059 31.6514L31.0245 37.3835ZM46.124 7.88119C46.124 3.55523 42.6913 0.0478516 38.4574 0.0478516C34.2234 0.0478516 30.7907 3.55523 30.7907 7.88119C30.7907 8.51569 30.8846 9.12277 31.0245 9.71223L20.5059 15.4443C21.2629 16.492 21.8724 17.6513 22.3133 18.8988L32.8319 13.1667C34.233 14.7236 36.2244 15.7145 38.4574 15.7145C42.6913 15.7145 46.124 12.2071 46.124 7.88119Z" fill="black"/>
<ellipse cx="9.72842" cy="23.5479" rx="9.6044" ry="10.1421" fill="#FFD400"/>
</g>
<defs>
<clipPath id="clip0">
<rect width="46" height="47" fill="white" transform="translate(0.124023 0.0478516)"/>
</clipPath>
</defs>
</svg>
