<svg width="76" height="84" viewBox="0 0 76 84" fill="none" xmlns="http://www.w3.org/2000/svg">
<rect x="53.7275" y="21.7214" width="12.0065" height="50.7965" rx="6.00324" fill="black"/>
<rect x="39.874" y="21.7214" width="13.8536" height="50.7965" rx="6.92682" fill="black"/>
<rect x="28.791" y="21.7214" width="11.0829" height="50.7965" fill="black"/>
<rect x="14.9375" y="21.7214" width="11.0829" height="50.7965" rx="5.54147" fill="black"/>
<path d="M60.972 21.7214H19.6997C17.0696 21.7214 14.9375 23.8535 14.9375 26.4836V67.7559C14.9375 70.386 17.0696 72.5181 19.6997 72.5181H60.972C63.6021 72.5181 65.7341 70.386 65.7341 67.7559V26.4836C65.7341 23.8535 63.6021 21.7214 60.972 21.7214ZM26.0493 69.3433H19.6997C18.8229 69.3433 18.1123 68.6326 18.1123 67.7559V26.4836C18.1123 25.6069 18.8229 24.8962 19.6997 24.8962H22.8745V36.8017V48.7072C22.8745 49.5839 23.5851 50.2945 24.4619 50.2945H26.0493V69.3433ZM38.7484 69.3433H29.2241V50.2945H30.8115C31.6882 50.2945 32.3988 49.5839 32.3988 48.7072V24.8962H35.5736V48.7072C35.5736 49.5839 36.2843 50.2945 37.161 50.2945H38.7484V69.3433ZM51.4476 69.3433H41.9232V50.2945H43.5106C44.3874 50.2945 45.098 49.5839 45.098 48.7072V24.8962H48.2728V48.7072C48.2728 49.5839 48.9835 50.2945 49.8602 50.2945H51.4476V69.3433ZM62.5594 67.7559C62.5594 68.6326 61.8487 69.3433 60.972 69.3433H54.6224V50.2945H56.2098C57.0865 50.2945 57.7972 49.5839 57.7972 48.7072V24.8962H60.972C61.8487 24.8962 62.5594 25.6069 62.5594 26.4836V67.7559Z" fill="#FFD400"/>
</svg>
