<svg width="41" height="12" viewBox="0 0 41 12" fill="none" xmlns="http://www.w3.org/2000/svg">
<g clip-path="url(#clip0)">
<path d="M17.4533 10.9349V3.76099H17.4058L14.8435 10.9349H13.8471L11.2848 3.76099H11.2374V10.9349H10.0511V1.21027H11.5695L14.3216 8.96872H14.3691L17.1211 1.21027H18.687V10.9349H17.4533ZM25.3774 10.9349H24.1437V9.71268H24.0962C23.7641 10.5629 23.0998 11.0412 22.1508 11.0412C20.7747 11.0412 19.9681 10.0315 19.9681 8.38418V3.81413H21.2492V8.11848C21.2492 9.18128 21.7237 9.76582 22.5778 9.76582C23.5268 9.76582 24.0488 9.02186 24.0488 7.90592V3.81413H25.3299L25.3774 10.9349ZM28.8886 3.70785C30.3596 3.70785 31.2611 4.61124 31.3086 5.93974H30.1223C30.0274 5.24892 29.6004 4.8238 28.8886 4.8238C28.1769 4.8238 27.7024 5.19578 27.7024 5.78032C27.7024 6.20544 27.9871 6.52428 28.6514 6.6837L29.6478 6.9494C30.929 7.26824 31.4035 7.85278 31.4035 8.86244C31.4035 10.1378 30.3596 11.0412 28.8886 11.0412C27.3228 11.0412 26.3738 10.1909 26.2789 8.8093H27.56C27.6549 9.55326 28.1294 9.92525 28.8886 9.92525C29.6478 9.92525 30.1223 9.55326 30.1223 8.96872C30.1223 8.49046 29.8851 8.22476 29.2208 8.06534L28.2243 7.79964C27.0381 7.4808 26.4687 6.84312 26.4687 5.78032C26.4687 4.5581 27.4177 3.70785 28.8886 3.70785ZM32.3524 1.95423C32.3524 1.47597 32.6846 1.10399 33.1116 1.10399C33.5387 1.10399 33.8708 1.47597 33.8708 1.95423C33.8708 2.43249 33.5387 2.80447 33.1116 2.80447C32.6846 2.80447 32.3524 2.43249 32.3524 1.95423ZM32.4473 3.81413H33.7285V10.9349H32.4473V3.81413ZM39.1377 6.25858C38.9954 5.51462 38.5209 4.87694 37.6668 4.87694C36.6704 4.87694 36.0061 5.83346 36.0061 7.32138C36.0061 8.86244 36.6704 9.76582 37.6668 9.76582C38.4734 9.76582 38.9479 9.28756 39.1377 8.43732H40.3714C40.2291 9.92525 39.1852 10.988 37.6668 10.988C35.8637 10.988 34.7249 9.60641 34.7249 7.32138C34.7249 5.0895 35.8637 3.65471 37.6668 3.65471C39.2801 3.65471 40.2291 4.8238 40.3714 6.20544L39.1377 6.25858ZM6.11282 2.16679C5.78068 2.59191 5.25873 2.96389 4.73679 2.91075C4.64189 2.27307 4.92659 1.63539 5.21128 1.26341C5.54343 0.785149 6.11282 0.466309 6.58732 0.466309C6.63477 1.05085 6.44497 1.68853 6.11282 2.16679ZM6.58732 3.01703C6.87202 3.01703 7.72611 3.12331 8.29551 4.07983C8.24806 4.13297 7.29906 4.77066 7.29906 6.09916C7.29906 7.69336 8.53275 8.22476 8.53275 8.22476C8.53275 8.2779 8.34296 8.96872 7.91591 9.71268C7.53631 10.3504 7.10927 10.988 6.49242 10.988C5.87558 10.988 5.68578 10.5629 4.97404 10.5629C4.26229 10.5629 4.02504 10.988 3.45565 10.988C2.8388 10.988 2.36431 10.2972 1.98471 9.65954C1.17807 8.33104 0.561224 5.93974 1.41532 4.34554C1.79491 3.54843 2.55411 3.01703 3.3133 3.01703C3.93014 3.01703 4.49954 3.49529 4.83169 3.49529C5.16383 3.49529 5.82813 2.96389 6.58732 3.01703Z" fill="black"/>
</g>
<defs>
<clipPath id="clip0">
<rect width="40" height="11" fill="white" transform="translate(0.65625 0.253662)"/>
</clipPath>
</defs>
</svg>
