<svg width="70" height="11" viewBox="0 0 70 11" fill="none" xmlns="http://www.w3.org/2000/svg">
<g clip-path="url(#clip0)">
<path d="M27.9526 8.93077H26.2204V8.05077H26.1937C25.7641 8.73077 25.192 9.07136 24.4731 9.07136C23.1666 9.07136 22.5155 8.26077 22.5155 6.64136V3.15371H24.2477V6.48312C24.2477 7.29783 24.5627 7.70665 25.1937 7.70665C25.5053 7.70665 25.753 7.59489 25.9405 7.37136C26.128 7.14783 26.2204 6.84371 26.2204 6.45959V3.15371H27.9526V8.93077ZM21.8956 8.93077H20.2519V8.10136H20.2296C19.8523 8.74842 19.2931 9.07195 18.5536 9.07195C18.0055 9.07195 17.5759 8.91312 17.2626 8.59548C16.9488 8.27783 16.793 7.85254 16.793 7.32254C16.793 6.20195 17.4407 5.55489 18.7339 5.38136L20.263 5.17371C20.263 4.54195 19.9291 4.22665 19.2614 4.22665C18.5909 4.22665 17.9526 4.43077 17.3483 4.84077V3.49842C17.5904 3.36901 17.9209 3.25724 18.341 3.15959C18.7171 3.06699 19.1017 3.01788 19.4879 3.01312C21.0927 3.01312 21.8956 3.83548 21.8956 5.47783V8.93077ZM20.263 6.58371V6.1943L19.2402 6.32959C18.6754 6.40489 18.3939 6.66606 18.3939 7.11489C18.3939 7.31724 18.4612 7.48489 18.5981 7.61371C18.7372 7.74312 18.9231 7.80783 19.1573 7.80783C19.4845 7.80783 19.7488 7.69254 19.9553 7.46136C20.1601 7.23018 20.263 6.93783 20.263 6.58312V6.58371ZM34.2566 8.93077H32.5183V8.13606H32.4977C32.1015 8.76018 31.5195 9.07195 30.7538 9.07195C30.0504 9.07195 29.4834 8.81783 29.0555 8.30724C28.6259 7.79901 28.4117 7.08665 28.4117 6.17195C28.4117 5.21665 28.6482 4.45254 29.1212 3.87665C29.5941 3.30018 30.2135 3.01371 30.9797 3.01371C31.7059 3.01371 32.2106 3.27959 32.4977 3.81489H32.5183V0.379006H34.2561V8.93018L34.2566 8.93077ZM32.5528 6.12136V5.68606C32.5528 5.31077 32.4454 4.99842 32.2334 4.75018C32.0214 4.50195 31.7437 4.37842 31.4043 4.37842C31.0192 4.37842 30.7171 4.53254 30.5012 4.84312C30.2852 5.15489 30.1767 5.58018 30.1767 6.12136C30.1767 6.62959 30.2819 7.02077 30.49 7.2943C30.7004 7.56959 30.9892 7.70606 31.3586 7.70606C31.5244 7.71032 31.6888 7.67329 31.8385 7.59798C31.9883 7.52267 32.1191 7.41119 32.2206 7.27254C32.4421 6.98195 32.5528 6.59901 32.5528 6.12136ZM35.8932 2.23901C35.6005 2.23901 35.3606 2.15077 35.1731 1.97136C35.0836 1.89033 35.0122 1.78943 34.9638 1.67586C34.9154 1.56229 34.8913 1.43884 34.8932 1.3143C34.8932 1.04665 34.985 0.829594 35.1731 0.659594C35.3606 0.490183 35.6005 0.405477 35.8932 0.405477C36.1898 0.405477 36.4324 0.490183 36.616 0.659594C36.8019 0.829594 36.8942 1.04665 36.8942 1.3143C36.8942 1.58606 36.8019 1.80724 36.616 1.98077C36.4324 2.15195 36.1898 2.23901 35.8932 2.23901ZM36.734 6.97254C36.734 7.21724 36.7902 7.4043 36.9054 7.52901C37.0194 7.6543 37.1713 7.71783 37.3611 7.71783C37.4568 7.71783 37.5525 7.70842 37.6465 7.68842C37.7423 7.67136 37.838 7.65195 37.9337 7.63312V8.88665C37.7233 8.94254 37.5035 8.98901 37.2709 9.02371C37.0299 9.06041 36.7866 9.07831 36.5431 9.07724C36.3122 9.07724 36.1018 9.03901 35.9121 8.95959C35.7291 8.88411 35.5638 8.76727 35.428 8.61724C35.2911 8.46233 35.1858 8.27932 35.1186 8.07959C35.0451 7.86783 35.0073 7.63136 35.0073 7.36724V3.15371H36.734V6.97254ZM40.6792 9.07136C39.741 9.07136 39.0037 8.80195 38.4668 8.26254C37.9298 7.72371 37.6616 6.98959 37.6616 6.06548C37.6616 5.11018 37.9392 4.36136 38.4962 3.82195C39.0544 3.28254 39.8067 3.01312 40.756 3.01312C41.6908 3.01312 42.4254 3.28254 42.9557 3.82195C43.4871 4.36136 43.7536 5.07548 43.7536 5.96312C43.7536 6.92254 43.4798 7.68077 42.9312 8.23783C42.3831 8.7943 41.633 9.07136 40.6792 9.07136ZM40.7243 4.37842C40.3131 4.37842 39.9942 4.52312 39.7672 4.81195C39.5402 5.10254 39.4255 5.51254 39.4255 6.04254C39.4255 7.15136 39.8629 7.70606 40.7354 7.70606C41.5667 7.70606 41.9835 7.13607 41.9835 5.99783C41.9835 4.91783 41.5634 4.37842 40.7243 4.37842ZM53.1526 8.93136H51.4204V5.63606C51.4204 4.79842 51.1199 4.37842 50.5189 4.37842C50.234 4.37842 50.0014 4.50371 49.8212 4.75606C49.6409 5.00783 49.5513 5.32195 49.5513 5.69724V8.93077H47.8151V5.60136C47.8151 4.78665 47.518 4.37842 46.9293 4.37842C46.6327 4.37842 46.3945 4.49783 46.2181 4.73842C46.0401 4.97959 45.9494 5.30665 45.9494 5.72077V8.93077H44.2132V3.1543H45.9494V4.05665H45.9722C46.1586 3.74094 46.4191 3.48157 46.7284 3.30371C47.0529 3.10966 47.4201 3.00944 47.7929 3.01312C48.5886 3.01312 49.1323 3.37195 49.4255 4.08959C49.8551 3.37195 50.4839 3.01312 51.3174 3.01312C52.5411 3.01312 53.1526 3.78724 53.1526 5.33724V8.93136ZM58.5446 8.93136H56.9003V8.10077H56.8781C56.5008 8.74783 55.9416 9.07136 55.202 9.07136C54.6545 9.07136 54.2244 8.91371 53.9111 8.59606C53.5978 8.27842 53.442 7.85254 53.442 7.32254C53.442 6.20195 54.0891 5.55489 55.3823 5.38136L56.912 5.17371C56.912 4.54195 56.5781 4.22665 55.9098 4.22665C55.2399 4.22665 54.6016 4.43077 53.9973 4.84077V3.49842C54.2394 3.36901 54.5694 3.25724 54.99 3.15959C55.366 3.06701 55.7503 3.0179 56.1363 3.01312C57.7417 3.01312 58.5446 3.83548 58.5446 5.47783V8.93077V8.93136ZM56.912 6.1943L55.8893 6.32959C55.3239 6.40489 55.0423 6.66606 55.0423 7.11489C55.0423 7.31724 55.1102 7.48489 55.2477 7.61371C55.3862 7.74312 55.5715 7.80783 55.8063 7.80783C56.133 7.80783 56.3979 7.69254 56.6043 7.46136C56.8085 7.23018 56.912 6.93783 56.912 6.58312V6.19489V6.1943ZM63.5182 8.72312C63.1265 8.95606 62.5589 9.07136 61.8199 9.07136C60.9541 9.07136 60.2546 8.80371 59.7199 8.26489C59.1851 7.72724 58.9164 7.0343 58.9164 6.18254C58.9164 5.20018 59.2035 4.42842 59.7761 3.86254C60.3503 3.29607 61.1182 3.01312 62.0787 3.01312C62.7408 3.01312 63.2216 3.10371 63.5182 3.28254V4.79606C63.1671 4.52115 62.7409 4.37455 62.304 4.37842C61.8043 4.37842 61.4109 4.52665 61.1182 4.82724C60.8266 5.12548 60.6809 5.53783 60.6809 6.06548C60.6809 6.57548 60.8211 6.97783 61.0993 7.26901C61.3764 7.56195 61.7615 7.70606 62.2478 7.70606C62.6813 7.70606 63.1036 7.56783 63.5182 7.28842V8.72312ZM69.6314 8.93077H67.5458L65.7485 6.06548H65.7256V8.93077H63.9895V0.378418H65.7256V5.82312H65.7479L67.4256 3.15371H69.4861L67.469 5.86724L69.6314 8.93077Z" fill="black"/>
<path d="M1.24969 5.19602C1.24969 5.19602 1.53904 5.14543 1.65756 5.27837C1.77665 5.41131 1.69874 5.68602 1.54071 5.69014C1.38268 5.69543 1.23633 5.72661 1.13283 5.60837C1.10601 5.57607 1.08739 5.53708 1.07874 5.49508C1.07008 5.45308 1.07167 5.40944 1.08336 5.36827C1.09504 5.3271 1.11644 5.28974 1.14553 5.25971C1.17463 5.22968 1.21047 5.20797 1.24969 5.19661V5.19602ZM4.38585 7.07308C4.35802 7.07543 4.32853 7.0619 4.29848 7.03896C4.09148 6.73073 4.01636 5.67602 3.92121 5.61308C3.82272 5.54779 3.46603 6.1972 2.75544 6.12779C2.45886 6.09837 2.1567 5.89249 1.97864 5.75014C1.99533 5.51073 1.99811 4.95073 2.44049 5.13249C2.7087 5.24367 3.16944 5.5472 3.57343 5.0019C4.02026 4.39896 4.26621 4.57426 4.41423 4.70543C4.56169 4.83602 4.46375 5.51779 4.6841 5.3272C4.90446 5.13661 5.79423 3.95367 5.79423 3.95367C5.79423 3.95367 6.48311 3.21131 6.58884 3.9919C6.69456 4.77249 7.14306 5.6372 7.26215 5.61249C7.38178 5.58779 8.76735 2.57837 8.966 2.38367C9.16465 2.18955 9.8324 2.21543 9.80068 2.71308C9.76896 3.21131 9.70052 6.30779 9.70052 6.30779C9.70052 6.30779 9.62261 7.18073 9.7506 6.71426C9.80346 6.52073 9.86022 6.34661 9.93144 6.14308C10.2731 4.97249 10.8557 2.97367 11.1462 1.94367L11.3148 1.32308C11.3294 1.25949 11.3468 1.19668 11.3671 1.13484C11.391 1.04661 11.4077 0.98955 11.4127 0.974256C11.4255 0.935432 11.4622 0.906021 11.5129 0.884844C11.5646 0.850138 11.6197 0.848374 11.682 0.846609C11.8434 0.831315 12.0504 0.853668 12.2368 0.910138C12.298 0.913242 12.3569 0.935566 12.406 0.974256L12.4138 0.980138L12.4177 0.982491C12.4373 0.998043 12.4548 1.01624 12.47 1.03661L12.4722 1.03896C12.4811 1.05073 12.4906 1.06543 12.5 1.08131C12.6035 1.24426 12.6675 1.54484 12.6035 2.07837C12.4438 3.40896 12.3197 6.14661 12.3197 6.14661C12.3197 6.14661 12.2958 6.27779 12.5523 5.70131C12.5612 5.68131 12.5729 5.66367 12.5829 5.64543C12.6015 5.63188 12.618 5.61542 12.6319 5.59661C12.7905 5.39484 13.2167 5.27602 13.5122 5.27896C13.6369 5.29484 13.7415 5.32837 13.8038 5.37014C13.9206 5.56014 13.8516 6.26014 13.8516 6.26014C13.6057 6.28484 13.1366 6.42602 12.9708 6.4519C12.8038 6.47837 12.5518 7.6319 12.2012 7.51367C11.8501 7.39602 11.0677 6.87132 11.0677 6.79955C11.0677 6.73661 11.1289 5.97014 11.1456 5.77308L11.1484 5.73367L11.149 5.72602C11.1601 5.57073 11.1506 5.50249 11.0833 5.65779C11.0254 5.79132 10.7734 6.6472 10.4923 7.57896C10.4629 7.66014 9.932 9.3772 9.86189 9.58661C9.77842 9.82896 9.70886 10.0148 9.66101 10.1113C9.58756 10.2172 9.48851 10.2843 9.34995 10.2395C9.00495 10.1278 8.56869 9.61896 8.5648 9.49249C8.55645 8.78073 8.59707 4.94955 8.43514 5.26896C8.26932 5.59602 6.97947 7.86779 6.97947 7.86779C6.95777 7.87131 6.94219 7.87073 6.92271 7.87249C6.83145 7.8619 6.69011 7.83014 6.65116 7.7372C6.64894 7.73131 6.6456 7.72602 6.64393 7.72073C6.64143 7.71291 6.63902 7.70507 6.63669 7.6972C6.61944 7.63484 6.61221 7.5672 6.59663 7.51131C6.53931 7.30367 6.44639 7.00543 6.34957 6.7019C6.20155 6.18426 6.04852 5.65484 6.02293 5.59661C5.97396 5.48249 5.90218 5.53073 5.83763 5.59661C5.54994 5.85779 4.9384 7.00955 4.38585 7.07308Z" fill="#FFA200"/>
</g>
<defs>
<clipPath id="clip0">
<rect width="69" height="10" fill="white" transform="translate(0.65625 0.253662)"/>
</clipPath>
</defs>
</svg>
