<svg width="29" height="29" viewBox="0 0 29 29" fill="none" xmlns="http://www.w3.org/2000/svg">
<g filter="url(#filter0_b)">
<circle cx="14.6562" cy="14.2537" r="14" fill="url(#paint0_linear)" fill-opacity="0.6"/>
</g>
<g clip-path="url(#clip0)">
<path d="M18.8806 16.7011C19.44 15.765 19.8111 14.5811 19.8831 13.4096C19.9288 12.6577 19.7613 11.8683 19.3985 11.1261C18.8294 9.96018 17.8517 9.3052 16.9073 8.67237C16.2025 8.20018 15.5364 7.75429 15.0656 7.11731L14.9812 7.00376C14.7028 6.62988 14.3885 6.20615 14.3386 5.85028C14.2888 5.49025 13.962 5.23407 13.6047 5.25484C13.2419 5.27977 12.9608 5.58025 12.9608 5.94444V18.2825C12.3806 17.9307 11.6661 17.7147 10.8837 17.7147C8.97555 17.7147 7.42188 18.9568 7.42188 20.4842C7.42188 22.0116 8.97555 23.2537 10.8837 23.2537C12.7919 23.2537 14.3456 22.0116 14.3456 20.4842V12.4139C15.3855 12.8114 17.0874 13.8236 17.5554 16.1873C17.4682 16.3161 17.3851 16.4546 17.2881 16.5654C17.0347 16.852 17.0624 17.2896 17.3504 17.5416C17.6357 17.7964 18.0733 17.766 18.3267 17.4793C18.5122 17.2688 18.677 17.0223 18.8349 16.7648C18.8515 16.7454 18.8668 16.7246 18.8806 16.7011Z" fill="#FFF6CA"/>
</g>
<defs>
<filter id="filter0_b" x="-99.3438" y="-99.7463" width="228" height="228" filterUnits="userSpaceOnUse" color-interpolation-filters="sRGB">
<feFlood flood-opacity="0" result="BackgroundImageFix"/>
<feGaussianBlur in="BackgroundImage" stdDeviation="50"/>
<feComposite in2="SourceAlpha" operator="in" result="effect1_backgroundBlur"/>
<feBlend mode="normal" in="SourceGraphic" in2="effect1_backgroundBlur" result="shape"/>
</filter>
<linearGradient id="paint0_linear" x1="0.65625" y1="23.1507" x2="32.7326" y2="19.7391" gradientUnits="userSpaceOnUse">
<stop offset="0.380208" stop-color="#FFD400"/>
<stop offset="0.9999" stop-color="#FFD400" stop-opacity="0.144455"/>
<stop offset="1" stop-color="#FFD400" stop-opacity="0"/>
</linearGradient>
<clipPath id="clip0">
<rect width="18" height="18" fill="white" transform="translate(4.65625 5.25366)"/>
</clipPath>
</defs>
</svg>
