<svg width="16" height="16" viewBox="0 0 16 16" fill="none" xmlns="http://www.w3.org/2000/svg">
<g clip-path="url(#clip0)">
<path fill-rule="evenodd" clip-rule="evenodd" d="M12.5925 6.90241C10.175 5.46679 6.1875 5.33491 3.87937 6.03554C3.50875 6.14804 3.11687 5.93866 3.005 5.56804C2.8925 5.19741 3.10125 4.80554 3.4725 4.69304C6.12187 3.88866 10.5256 4.04429 13.3088 5.69616C13.6419 5.89429 13.7513 6.32429 13.5538 6.65741C13.3562 6.99054 12.9256 7.10054 12.5925 6.90241ZM12.5138 9.02929C12.3438 9.30429 11.9844 9.39054 11.7094 9.22179C9.69375 7.98304 6.62063 7.62366 4.23563 8.34741C3.92688 8.44116 3.6 8.26679 3.50625 7.95804C3.41313 7.64866 3.5875 7.32304 3.89625 7.22866C6.62 6.40241 10.0062 6.80241 12.3212 8.22554C12.5962 8.39429 12.6825 8.75491 12.5138 9.02929ZM11.5956 11.0712C11.4613 11.2924 11.1731 11.3618 10.9531 11.2268C9.19188 10.1505 6.975 9.90741 4.36438 10.5037C4.11313 10.5612 3.8625 10.4037 3.805 10.1524C3.7475 9.90054 3.90437 9.64991 4.15625 9.59241C7.01312 8.93929 9.46375 9.22054 11.4406 10.4287C11.6612 10.563 11.7306 10.8512 11.5956 11.0712ZM8.15625 0.253662C4.01438 0.253662 0.65625 3.61179 0.65625 7.75366C0.65625 11.8962 4.01438 15.2537 8.15625 15.2537C12.2987 15.2537 15.6562 11.8962 15.6562 7.75366C15.6562 3.61179 12.2987 0.253662 8.15625 0.253662Z" fill="black"/>
</g>
<defs>
<clipPath id="clip0">
<rect width="15" height="15" fill="white" transform="translate(0.65625 0.253662)"/>
</clipPath>
</defs>
</svg>
