<svg width="31" height="30" viewBox="0 0 31 30" fill="none" xmlns="http://www.w3.org/2000/svg">
<path d="M12.9167 24.375C12.9167 25.4112 12.0487 26.25 10.9792 26.25C9.90967 26.25 9.04167 25.4112 9.04167 24.375C9.04167 23.34 9.90967 22.5 10.9792 22.5C12.0487 22.5 12.9167 23.34 12.9167 24.375ZM17.4375 22.5C16.368 22.5 15.5 23.3388 15.5 24.375C15.5 25.4112 16.368 26.25 17.4375 26.25C18.507 26.25 19.375 25.4112 19.375 24.375C19.375 23.34 18.507 22.5 17.4375 22.5ZM19.1632 16.25L21.7168 7.5H0L3.79492 16.25H19.1632ZM25.5815 3.75L21.1485 18.75H4.87733L5.96104 21.25H23.0614L27.5487 6.25H30.0403L31 3.75H25.5815Z" fill="#050401"/>
</svg>
