<svg width="29" height="29" viewBox="0 0 29 29" fill="none" xmlns="http://www.w3.org/2000/svg">
<g clip-path="url(#clip0)">
<path d="M6.42702 17.5251L5.41757 21.2935L1.72805 21.3715C0.625426 19.3264 0 16.9865 0 14.5C0 12.0956 0.584758 9.82813 1.62128 7.8316H1.62208L4.90678 8.43381L6.34568 11.6988C6.04452 12.5768 5.88038 13.5193 5.88038 14.5C5.88049 15.5644 6.07329 16.5842 6.42702 17.5251Z" fill="#FBBB00"/>
<path d="M28.7467 11.7912C28.9133 12.6683 29.0001 13.5742 29.0001 14.5C29.0001 15.5381 28.8909 16.5507 28.683 17.5275C27.9772 20.8513 26.1328 23.7537 23.5778 25.8076L23.577 25.8068L19.4397 25.5957L18.8542 21.9404C20.5495 20.9461 21.8745 19.3902 22.5724 17.5275H14.8188V11.7912H22.6855H28.7467Z" fill="#518EF8"/>
<path d="M23.5768 25.8069L23.5776 25.8076C21.0927 27.805 17.9361 29 14.5 29C8.97803 29 4.17711 25.9136 1.72803 21.3716L6.42699 17.5251C7.65151 20.7932 10.8041 23.1196 14.5 23.1196C16.0886 23.1196 17.5769 22.6901 18.854 21.9405L23.5768 25.8069Z" fill="#28B446"/>
<path d="M23.7551 3.33817L19.0578 7.18384C17.736 6.35768 16.1737 5.88043 14.4998 5.88043C10.7202 5.88043 7.50872 8.31354 6.34555 11.6988L1.62189 7.83159H1.62109C4.03433 3.17884 8.89579 0 14.4998 0C18.0181 0 21.2439 1.25323 23.7551 3.33817Z" fill="#F14336"/>
</g>
<defs>
<clipPath id="clip0">
<rect width="29" height="29" fill="white"/>
</clipPath>
</defs>
</svg>
