<svg width="22" height="24" viewBox="0 0 22 24" fill="none" xmlns="http://www.w3.org/2000/svg">
<g clip-path="url(#clip0)">
<path d="M17.5804 2.56201L14.5798 5.69901C13.4409 5.27101 12.171 5.00001 10.7747 5.00001C3.98706 5.00001 0 11.551 0 11.551C0 11.551 1.72898 14.502 4.6148 16.689L2.00429 19.598L3.27233 21.012L18.8493 3.97701L17.5804 2.56201ZM12.1854 8.34101C9.23677 6.88801 6.19402 10.249 7.46385 13.547L5.91602 15.254C4.28927 14.094 3.02392 12.604 2.27512 11.594C3.614 9.94601 6.59488 7.00001 10.7747 7.00001C11.6061 7.00001 12.3853 7.11901 13.1153 7.31501L12.1854 8.34101ZM9.59997 15.772L14.1645 10.779C15.0766 13.89 12.3683 16.846 9.59997 15.772ZM21.5226 11.551C21.5226 11.551 17.7095 19 10.7747 19C9.53809 19 8.38753 18.709 7.32126 18.263L8.76866 16.68C9.40985 16.873 10.0762 17 10.7747 17C15.0712 17 18.0422 13.473 19.2977 11.636C18.6439 10.814 17.5436 9.64601 16.081 8.68401L17.4163 7.22401C20.0904 9.12401 21.5226 11.551 21.5226 11.551Z" fill="#656161"/>
</g>
<defs>
<clipPath id="clip0">
<rect width="21.5226" height="24" fill="white"/>
</clipPath>
</defs>
</svg>
